<svg width="210" height="36" viewBox="0 0 210 36" fill="none" xmlns="http://www.w3.org/2000/svg">
<path d="M0 4.499C0.0419692 3.33345 0.534492 2.22965 1.3739 1.41992C2.2133 0.610199 3.33412 0.157715 4.50042 0.157715C5.66672 0.157715 6.78753 0.610199 7.62694 1.41992C8.46634 2.22965 8.95886 3.33345 9.00083 4.499H0Z" fill="white"/>
<path d="M18.0038 4.49756C18.0255 5.10219 17.9252 5.70502 17.7089 6.27004C17.4925 6.83505 17.1645 7.35068 16.7445 7.78613C16.3244 8.22158 15.8209 8.56792 15.2641 8.80447C14.7072 9.04103 14.1084 9.16294 13.5033 9.16294C12.8983 9.16294 12.2995 9.04103 11.7426 8.80447C11.1857 8.56792 10.6823 8.22158 10.2622 7.78613C9.84216 7.35068 9.51416 6.83505 9.2978 6.27004C9.08143 5.70502 8.98114 5.10219 9.00292 4.49756H18.0038Z" fill="white"/>
<path d="M18 4.49753C18.042 3.33199 18.5345 2.22818 19.3739 1.41846C20.2133 0.608734 21.3341 0.15625 22.5004 0.15625C23.6667 0.15625 24.7875 0.608734 25.6269 1.41846C26.4663 2.22818 26.9589 3.33199 27.0008 4.49753H18Z" fill="white"/>
<path d="M35.995 4.49756C35.995 5.08818 35.8787 5.67302 35.6526 6.21868C35.4266 6.76434 35.0953 7.26014 34.6777 7.67777C34.2601 8.0954 33.7643 8.42669 33.2186 8.65271C32.673 8.87873 32.0881 8.99506 31.4975 8.99506C30.9069 8.99506 30.322 8.87873 29.7764 8.65271C29.2307 8.42669 28.7349 8.0954 28.3173 7.67777C27.8997 7.26014 27.5684 6.76434 27.3424 6.21868C27.1163 5.67302 27 5.08818 27 4.49756H35.995Z" fill="white"/>
<path d="M0 13.4984C0.0419692 12.3328 0.534492 11.229 1.3739 10.4193C2.2133 9.60959 3.33412 9.1571 4.50042 9.1571C5.66672 9.1571 6.78753 9.60959 7.62694 10.4193C8.46634 11.229 8.95886 12.3328 9.00083 13.4984H0Z" fill="white"/>
<path d="M18.0038 13.4983C18.0255 14.1029 17.9252 14.7057 17.7089 15.2708C17.4925 15.8358 17.1645 16.3514 16.7445 16.7869C16.3244 17.2223 15.8209 17.5687 15.2641 17.8052C14.7072 18.0418 14.1084 18.1637 13.5033 18.1637C12.8983 18.1637 12.2995 18.0418 11.7426 17.8052C11.1857 17.5687 10.6823 17.2223 10.2622 16.7869C9.84216 16.3514 9.51416 15.8358 9.2978 15.2708C9.08143 14.7057 8.98114 14.1029 9.00292 13.4983H18.0038Z" fill="white"/>
<path d="M18 13.4984C18.042 12.3328 18.5345 11.229 19.3739 10.4193C20.2133 9.60959 21.3341 9.1571 22.5004 9.1571C23.6667 9.1571 24.7875 9.60959 25.6269 10.4193C26.4663 11.229 26.9589 12.3328 27.0008 13.4984H18Z" fill="white"/>
<path d="M35.995 13.4983C35.995 14.0889 35.8787 14.6737 35.6526 15.2194C35.4266 15.7651 35.0953 16.2609 34.6777 16.6785C34.2601 17.0961 33.7643 17.4274 33.2186 17.6534C32.673 17.8795 32.0881 17.9958 31.4975 17.9958C30.9069 17.9958 30.322 17.8795 29.7764 17.6534C29.2307 17.4274 28.7349 17.0961 28.3173 16.6785C27.8997 16.2609 27.5684 15.7651 27.3424 15.2194C27.1163 14.6737 27 14.0889 27 13.4983H35.995Z" fill="white"/>
<path d="M0 22.4992C0.0419692 21.3337 0.534492 20.2299 1.3739 19.4202C2.2133 18.6104 3.33412 18.158 4.50042 18.158C5.66672 18.158 6.78753 18.6104 7.62694 19.4202C8.46634 20.2299 8.95886 21.3337 9.00083 22.4992H0Z" fill="white"/>
<path d="M18.0038 22.4991C18.0255 23.1038 17.9252 23.7066 17.7089 24.2716C17.4925 24.8366 17.1645 25.3523 16.7445 25.7877C16.3244 26.2232 15.8209 26.5695 15.2641 26.8061C14.7072 27.0426 14.1084 27.1645 13.5033 27.1645C12.8983 27.1645 12.2995 27.0426 11.7426 26.8061C11.1857 26.5695 10.6823 26.2232 10.2622 25.7877C9.84216 25.3523 9.51416 24.8366 9.2978 24.2716C9.08143 23.7066 8.98114 23.1038 9.00292 22.4991H18.0038Z" fill="white"/>
<path d="M18 22.4992C18.042 21.3337 18.5345 20.2299 19.3739 19.4202C20.2133 18.6104 21.3341 18.158 22.5004 18.158C23.6667 18.158 24.7875 18.6104 25.6269 19.4202C26.4663 20.2299 26.9589 21.3337 27.0008 22.4992H18Z" fill="white"/>
<path d="M35.995 22.4991C35.995 23.0898 35.8787 23.6746 35.6526 24.2203C35.4266 24.7659 35.0953 25.2617 34.6777 25.6794C34.2601 26.097 33.7643 26.4283 33.2186 26.6543C32.673 26.8803 32.0881 26.9966 31.4975 26.9966C30.9069 26.9966 30.322 26.8803 29.7764 26.6543C29.2307 26.4283 28.7349 26.097 28.3173 25.6794C27.8997 25.2617 27.5684 24.7659 27.3424 24.2203C27.1163 23.6746 27 23.0898 27 22.4991H35.995Z" fill="white"/>
<path d="M0 31.5C0.0419692 30.3344 0.534492 29.2306 1.3739 28.4209C2.2133 27.6112 3.33412 27.1587 4.50042 27.1587C5.66672 27.1587 6.78753 27.6112 7.62694 28.4209C8.46634 29.2306 8.95886 30.3344 9.00083 31.5H0Z" fill="white"/>
<path d="M18.0008 31.5C17.9589 32.6655 17.4663 33.7693 16.6269 34.5791C15.7875 35.3888 14.6667 35.8413 13.5004 35.8413C12.3341 35.8413 11.2133 35.3888 10.3739 34.5791C9.53449 33.7693 9.04197 32.6655 9 31.5H18.0008Z" fill="white"/>
<path d="M18 31.5C18.042 30.3344 18.5345 29.2306 19.3739 28.4209C20.2133 27.6112 21.3341 27.1587 22.5004 27.1587C23.6667 27.1587 24.7875 27.6112 25.6269 28.4209C26.4663 29.2306 26.9589 30.3344 27.0008 31.5H18Z" fill="white"/>
<path d="M35.995 31.5C35.995 32.6928 35.5212 33.8368 34.6777 34.6802C33.8343 35.5237 32.6903 35.9975 31.4975 35.9975C30.3047 35.9975 29.1607 35.5237 28.3173 34.6802C27.4738 33.8368 27 32.6928 27 31.5H35.995Z" fill="white"/>
<path d="M58.9817 13.2591C58.9801 12.8363 58.811 12.4312 58.5115 12.1327C58.2119 11.8342 57.8062 11.6666 57.3833 11.6666H56.1058V17.85H57.5758C57.6823 17.8508 57.7878 17.8303 57.8862 17.7898C57.9846 17.7492 58.0739 17.6894 58.1489 17.6139C58.2239 17.5384 58.283 17.4486 58.3228 17.3499C58.3627 17.2512 58.3824 17.1456 58.3808 17.0391H58.6433V18.9233H58.3808C58.3824 18.8169 58.3627 18.7112 58.3228 18.6125C58.283 18.5138 58.2239 18.4241 58.1489 18.3486C58.0739 18.273 57.9846 18.2133 57.8862 18.1727C57.7878 18.1322 57.6823 18.1117 57.5758 18.1125H56.1058V24.3016H57.3833C57.8072 24.3016 58.2138 24.1333 58.5135 23.8335C58.8133 23.5338 58.9817 23.1272 58.9817 22.7033H59.25V24.5816H54V24.3191H54.8342V11.6666H54V11.3983H59.25V13.3L58.9817 13.2591Z" fill="white"/>
<path d="M67.9866 17.2083L70.1099 24.3191H71.0141V24.5816H68.0974V24.3191H68.7741L67.2341 19.1858L65.2799 24.3191H66.0499V24.5816H64.1308V24.3191H65.0349L67.1408 18.7891L64.9999 11.6666H64.1133V11.3983H67.0299V11.6666H66.3124L67.8583 16.8L69.8124 11.6666H69.0774V11.3983H70.9966V11.6666H70.0749L67.9866 17.2083Z" fill="white"/>
<path d="M77.9871 11.4392C78.2639 11.4385 78.5381 11.4924 78.7939 11.598C79.0498 11.7035 79.2822 11.8586 79.4779 12.0543C79.6736 12.25 79.8287 12.4824 79.9342 12.7383C80.0398 12.9941 80.0937 13.2683 80.093 13.5451V15.0501H78.833V12.5301C78.8361 12.4173 78.8165 12.3051 78.7753 12.2001C78.7342 12.0951 78.6723 11.9994 78.5933 11.9188C78.5144 11.8383 78.42 11.7744 78.3159 11.7311C78.2117 11.6878 78.0999 11.6659 77.9871 11.6667H77.6488C77.5375 11.666 77.4272 11.6873 77.3242 11.7295C77.2212 11.7718 77.1277 11.834 77.049 11.9127C76.9703 11.9914 76.908 12.085 76.8658 12.188C76.8236 12.2909 76.8022 12.4013 76.803 12.5126V23.4734C76.803 23.6977 76.8921 23.9129 77.0507 24.0715C77.2093 24.2301 77.4245 24.3192 77.6488 24.3192H77.9871C78.0984 24.32 78.2088 24.2987 78.3117 24.2564C78.4147 24.2142 78.5083 24.1519 78.587 24.0732C78.6657 23.9945 78.7279 23.901 78.7702 23.798C78.8124 23.695 78.8338 23.5847 78.833 23.4734V20.9534H80.093V22.4584C80.0937 22.7352 80.0398 23.0093 79.9342 23.2652C79.8287 23.521 79.6736 23.7535 79.4779 23.9492C79.2822 24.1449 79.0498 24.2999 78.7939 24.4055C78.5381 24.5111 78.2639 24.565 77.9871 24.5642H77.6488C77.3721 24.565 77.0979 24.5111 76.842 24.4055C76.5862 24.2999 76.3537 24.1449 76.158 23.9492C75.9623 23.7535 75.8073 23.521 75.7017 23.2652C75.5962 23.0093 75.5422 22.7352 75.543 22.4584V13.5276C75.5422 13.2505 75.5961 12.9761 75.7016 12.7199C75.8071 12.4637 75.9621 12.2309 76.1577 12.0347C76.3533 11.8386 76.5857 11.6829 76.8416 11.5767C77.0975 11.4706 77.3718 11.4159 77.6488 11.4159H77.9871V11.4392Z" fill="white"/>
<path d="M89.6047 22.68H89.8672V24.5642H84.6172V24.3017H85.4455V11.6667H84.6172V11.4042H87.5339V11.6667H86.7114V24.3017H87.9889C88.4128 24.3017 88.8193 24.1333 89.119 23.8335C89.4188 23.5338 89.5872 23.1272 89.5872 22.7033L89.6047 22.68Z" fill="white"/>
<path d="M100.513 11.4158V11.6666H99.6908V22.4583C99.6908 22.7353 99.6362 23.0097 99.53 23.2655C99.4238 23.5214 99.2682 23.7538 99.072 23.9494C98.8758 24.1451 98.643 24.3 98.3868 24.4055C98.1307 24.511 97.8562 24.5649 97.5792 24.5641H97.2408C96.6823 24.5641 96.1467 24.3423 95.7518 23.9474C95.3569 23.5524 95.135 23.0168 95.135 22.4583V11.6666H94.3125V11.3983H97.2292V11.6666H96.4067V23.135C96.4067 23.4444 96.5296 23.7411 96.7484 23.9599C96.9672 24.1787 97.2639 24.3016 97.5733 24.3016C97.8179 24.3024 98.0602 24.2548 98.2864 24.1616C98.5125 24.0683 98.7179 23.9313 98.8909 23.7583C99.0638 23.5854 99.2008 23.3799 99.2941 23.1538C99.3873 22.9277 99.4349 22.6854 99.4342 22.4408V11.6666H98.6058V11.3983L100.513 11.4158Z" fill="white"/>
<path d="M109.573 13.5276V15.0267H108.313V12.5067C108.313 12.3959 108.291 12.2862 108.249 12.1839C108.206 12.0816 108.144 11.9888 108.065 11.9107C107.987 11.8326 107.893 11.7709 107.791 11.729C107.688 11.6871 107.578 11.666 107.468 11.6667H107.129C106.905 11.6667 106.69 11.7558 106.531 11.9145C106.372 12.0731 106.283 12.2882 106.283 12.5126V16.0417C106.282 16.1785 106.313 16.3136 106.375 16.4355C106.437 16.5574 106.528 16.6625 106.639 16.7417L108.693 18.2059C108.97 18.3977 109.198 18.6539 109.355 18.9525C109.512 19.2511 109.595 19.5833 109.597 19.9209V22.4584C109.597 22.7354 109.542 23.0097 109.436 23.2656C109.33 23.5215 109.174 23.7539 108.978 23.9495C108.782 24.1451 108.549 24.3001 108.293 24.4056C108.037 24.5111 107.762 24.565 107.485 24.5642H107.147C106.588 24.5642 106.053 24.3424 105.658 23.9474C105.263 23.5525 105.041 23.0169 105.041 22.4584V20.9534H106.301V23.4734C106.301 23.6977 106.39 23.9129 106.549 24.0715C106.707 24.2301 106.922 24.3192 107.147 24.3192H107.485C107.597 24.32 107.707 24.2987 107.81 24.2565C107.914 24.2144 108.008 24.1522 108.087 24.0736C108.166 23.9949 108.229 23.9014 108.272 23.7984C108.315 23.6954 108.337 23.585 108.337 23.4734V19.9384C108.339 19.801 108.307 19.6651 108.244 19.543C108.181 19.4209 108.088 19.3162 107.975 19.2384L105.928 17.7742C105.646 17.5856 105.415 17.3315 105.253 17.0338C105.092 16.7362 105.005 16.4037 105 16.0651V13.5276C104.999 13.2505 105.053 12.9761 105.159 12.7199C105.264 12.4637 105.419 12.2309 105.615 12.0347C105.81 11.8386 106.043 11.6829 106.299 11.5768C106.554 11.4706 106.829 11.4159 107.106 11.4159H107.444C107.723 11.4128 108 11.4652 108.259 11.57C108.517 11.6748 108.752 11.83 108.95 12.0264C109.149 12.2229 109.306 12.4568 109.413 12.7145C109.519 12.9722 109.574 13.2486 109.573 13.5276Z" fill="white"/>
<path d="M116.219 11.6666V24.3191H117.047V24.5816H114.131V24.3191H114.918V11.6666H114.09V11.3983H117.007V11.6666H116.219Z" fill="white"/>
<path d="M129.29 11.4158V11.6666H128.404L126.164 24.5641H124.834L122.576 11.6666H121.672V11.3983H124.589V11.6666H123.836L126 24.0741L128.176 11.6666H127.406V11.3983L129.29 11.4158Z" fill="white"/>
<path d="M138.917 13.2591C138.916 12.8363 138.747 12.4312 138.447 12.1327C138.147 11.8342 137.742 11.6666 137.319 11.6666H136.041V17.85H137.506C137.612 17.8508 137.718 17.8303 137.817 17.7898C137.915 17.7494 138.005 17.6897 138.081 17.6142C138.156 17.5388 138.216 17.4491 138.256 17.3504C138.297 17.2516 138.317 17.1458 138.316 17.0391H138.579V18.9233H138.316C138.317 18.8166 138.297 18.7108 138.256 18.6121C138.216 18.5134 138.156 18.4237 138.081 18.3482C138.005 18.2728 137.915 18.2131 137.817 18.1726C137.718 18.1321 137.612 18.1117 137.506 18.1125H136.041V24.3016H137.319C137.743 24.3016 138.149 24.1333 138.449 23.8335C138.749 23.5338 138.917 23.1272 138.917 22.7033H139.18V24.5816H133.93V24.3191H134.752V11.6666H133.936V11.3983H139.186V13.3L138.917 13.2591Z" fill="white"/>
<path d="M159.155 22.4759C159.156 22.7526 159.102 23.0268 158.997 23.2827C158.891 23.5385 158.736 23.771 158.54 23.9666C158.345 24.1623 158.112 24.3174 157.856 24.423C157.6 24.5285 157.326 24.5825 157.05 24.5817H156.711C156.432 24.5856 156.156 24.5339 155.897 24.4298C155.639 24.3256 155.403 24.171 155.205 23.975C155.007 23.779 154.85 23.5455 154.743 23.2881C154.636 23.0307 154.581 22.7546 154.582 22.4759V13.545C154.581 13.2683 154.635 12.9941 154.741 12.7383C154.846 12.4824 155.001 12.25 155.197 12.0543C155.393 11.8586 155.625 11.7035 155.881 11.5979C156.137 11.4924 156.411 11.4384 156.688 11.4392H157.026C157.303 11.4384 157.577 11.4924 157.833 11.5979C158.089 11.7035 158.321 11.8586 158.517 12.0543C158.713 12.25 158.868 12.4824 158.973 12.7383C159.079 12.9941 159.133 13.2683 159.132 13.545V15.05H157.872V12.53C157.875 12.4192 157.856 12.3089 157.817 12.2055C157.777 12.102 157.717 12.0074 157.641 11.9271C157.564 11.8469 157.473 11.7825 157.371 11.7379C157.27 11.6932 157.16 11.669 157.05 11.6667H156.711C156.6 11.6659 156.49 11.6873 156.387 11.7295C156.284 11.7718 156.19 11.834 156.111 11.9127C156.033 11.9914 155.97 12.085 155.928 12.1879C155.886 12.2909 155.865 12.4013 155.865 12.5126V23.4734C155.865 23.6977 155.954 23.9129 156.113 24.0715C156.272 24.2301 156.487 24.3192 156.711 24.3192H157.05C157.161 24.32 157.271 24.2986 157.374 24.2564C157.477 24.2142 157.571 24.1519 157.649 24.0732C157.728 23.9945 157.79 23.901 157.833 23.798C157.875 23.695 157.896 23.5847 157.895 23.4734V19.8976H157.067V19.635H159.155V22.4759Z" fill="white"/>
<path d="M169.836 11.4158V11.6666H169.007V22.4583C169.008 22.7351 168.954 23.0093 168.849 23.2651C168.743 23.5209 168.588 23.7534 168.392 23.9491C168.196 24.1448 167.964 24.2999 167.708 24.4054C167.452 24.511 167.178 24.5649 166.901 24.5641H166.563C166.286 24.5649 166.012 24.511 165.756 24.4054C165.5 24.2999 165.268 24.1448 165.072 23.9491C164.877 23.7534 164.722 23.5209 164.616 23.2651C164.51 23.0093 164.456 22.7351 164.457 22.4583V11.6666H163.629V11.3983H166.546V11.6666H165.717V23.135C165.717 23.4444 165.84 23.7411 166.059 23.9599C166.278 24.1787 166.574 24.3016 166.884 24.3016C167.128 24.3024 167.371 24.2548 167.597 24.1616C167.823 24.0683 168.028 23.9313 168.201 23.7583C168.374 23.5854 168.511 23.3799 168.605 23.1538C168.698 22.9277 168.746 22.6854 168.745 22.4408V11.6666H167.916V11.3983L169.836 11.4158Z" fill="white"/>
<path d="M179.701 22.68H179.97V24.5642H174.72V24.3017H175.548V11.6667H174.72V11.4042H177.636V11.6667H176.808V24.3017H178.086C178.509 24.3017 178.916 24.1333 179.216 23.8335C179.516 23.5338 179.684 23.1272 179.684 22.7033L179.701 22.68Z" fill="white"/>
<path d="M189.818 13.2591C189.816 12.8363 189.647 12.4312 189.347 12.1327C189.048 11.8342 188.642 11.6666 188.219 11.6666H186.942V17.85H188.418C188.524 17.8508 188.63 17.8303 188.728 17.7898C188.826 17.7492 188.916 17.6894 188.991 17.6139C189.066 17.5384 189.125 17.4486 189.165 17.3499C189.204 17.2512 189.224 17.1456 189.223 17.0391H189.485V18.9233H189.223C189.224 18.8169 189.204 18.7112 189.165 18.6125C189.125 18.5138 189.066 18.4241 188.991 18.3486C188.916 18.273 188.826 18.2133 188.728 18.1727C188.63 18.1322 188.524 18.1117 188.418 18.1125H186.948V24.3016H188.225C188.649 24.3016 189.056 24.1333 189.355 23.8335C189.655 23.5338 189.823 23.1272 189.823 22.7033H190.086V24.5816H184.836V24.3191H185.664V11.6666H184.836V11.3983H190.086V13.3L189.818 13.2591Z" fill="white"/>
<path d="M200.557 11.4159V13.3001H200.289C200.29 13.0904 200.249 12.8827 200.169 12.6888C200.09 12.495 199.972 12.3187 199.824 12.1702C199.676 12.0217 199.501 11.9039 199.307 11.8235C199.113 11.7431 198.906 11.7017 198.696 11.7017H198.393V24.3367H199.221V24.5992H196.305V24.3367H197.133V11.7017H196.83C196.406 11.7017 195.999 11.8701 195.699 12.1699C195.4 12.4696 195.231 12.8762 195.231 13.3001H194.969V11.4159H200.557Z" fill="white"/>
<path d="M210.001 13.5275V15.0267H208.741V12.5067C208.74 12.3946 208.717 12.2838 208.673 12.1807C208.629 12.0776 208.565 11.9843 208.485 11.9061C208.405 11.8279 208.31 11.7665 208.205 11.7254C208.101 11.6843 207.99 11.6644 207.878 11.6667H207.539C207.428 11.6659 207.318 11.6873 207.215 11.7295C207.112 11.7717 207.018 11.834 206.94 11.9127C206.861 11.9914 206.799 12.0849 206.756 12.1879C206.714 12.2909 206.693 12.4012 206.694 12.5125V16.0417C206.69 16.1787 206.721 16.3144 206.783 16.4365C206.845 16.5587 206.937 16.6635 207.049 16.7417L209.097 18.2058C209.375 18.3977 209.602 18.6538 209.759 18.9524C209.917 19.251 210 19.5833 210.001 19.9208V22.4583C210.002 22.7351 209.948 23.0093 209.842 23.2651C209.737 23.521 209.582 23.7534 209.386 23.9491C209.19 24.1448 208.958 24.2999 208.702 24.4054C208.446 24.511 208.172 24.5649 207.895 24.5642H207.557C207.28 24.5649 207.006 24.511 206.75 24.4054C206.494 24.2999 206.262 24.1448 206.066 23.9491C205.87 23.7534 205.715 23.521 205.61 23.2651C205.504 23.0093 205.45 22.7351 205.451 22.4583V20.9533H206.711V23.4733C206.71 23.5846 206.732 23.695 206.774 23.7979C206.816 23.9009 206.878 23.9945 206.957 24.0732C207.036 24.1519 207.129 24.2141 207.232 24.2564C207.335 24.2986 207.446 24.32 207.557 24.3192H207.895C208.007 24.32 208.117 24.2986 208.22 24.2564C208.323 24.2141 208.416 24.1519 208.495 24.0732C208.574 23.9945 208.636 23.9009 208.678 23.7979C208.721 23.695 208.742 23.5846 208.741 23.4733V19.9383C208.743 19.8016 208.711 19.6665 208.649 19.5445C208.587 19.4226 208.497 19.3176 208.385 19.2383L206.332 17.7742C206.056 17.5819 205.831 17.3264 205.675 17.029C205.518 16.7316 205.436 16.401 205.434 16.065V13.5275C205.433 13.2505 205.487 12.976 205.592 12.7199C205.698 12.4637 205.853 12.2309 206.048 12.0347C206.244 11.8385 206.476 11.6829 206.732 11.5767C206.988 11.4705 207.262 11.4158 207.539 11.4158H207.878C208.156 11.4135 208.432 11.4665 208.69 11.5716C208.948 11.6768 209.183 11.8321 209.38 12.0285C209.578 12.2249 209.734 12.4585 209.841 12.7158C209.947 12.9731 210.002 13.249 210.001 13.5275Z" fill="white"/>
</svg>
