<svg width="40" height="32" viewBox="0 0 40 32" fill="none" xmlns="http://www.w3.org/2000/svg">
<path d="M6.66667 19.0589C6.2985 19.0589 6 19.3636 6 19.7395V20.9646C6.00977 24.3594 4.68945 27.6168 2.33333 30.0115L1.5332 30.8284C1.36003 30.9992 1.29036 31.2525 1.35156 31.4905C1.41243 31.7284 1.59473 31.9142 1.8278 31.9764C2.06087 32.0389 2.30859 31.9677 2.47591 31.7909L3.27604 30.974C5.88314 28.3247 7.34408 24.7206 7.33333 20.9646V19.7395C7.33333 19.3636 7.03483 19.0589 6.66667 19.0589Z" fill="#AB3996"/>
<path d="M33.3333 19.0589C32.9652 19.0589 32.6667 19.3636 32.6667 19.7395V20.9646C32.6566 24.721 34.1188 28.3251 36.7272 30.974L37.5273 31.7909C37.7891 32.0488 38.2048 32.0452 38.4619 31.7826C38.7191 31.5201 38.7227 31.0956 38.4701 30.8284L37.6699 30.0115C35.3125 27.6175 33.9909 24.3597 34 20.9646V19.7395C34 19.3636 33.7015 19.0589 33.3333 19.0589Z" fill="#AB3996"/>
<path d="M10.4714 31.7923C12.738 29.4907 14.0088 26.3585 14 23.0947V21.1009C14 20.725 13.7015 20.4202 13.3333 20.4202C12.9652 20.4202 12.6667 20.725 12.6667 21.1009V23.0947C12.6745 25.9976 11.5446 28.7827 9.52865 30.8297C9.35547 31.0006 9.28581 31.2538 9.34701 31.4918C9.40788 31.7298 9.58984 31.9156 9.82292 31.9777C10.056 32.0402 10.304 31.9691 10.4714 31.7923Z" fill="#AB3996"/>
<path d="M26.6667 20.4202C26.2985 20.4202 26 20.725 26 21.1009V23.0947C25.9912 26.3585 27.262 29.4907 29.5286 31.7923C29.7904 32.0502 30.2061 32.0465 30.4632 31.7839C30.7204 31.5214 30.724 31.097 30.4714 30.8297C28.4554 28.7827 27.3255 25.9976 27.3333 23.0947V21.1009C27.3333 20.725 27.0348 20.4202 26.6667 20.4202Z" fill="#AB3996"/>
<path d="M20 31.311V20.4202C20 20.0443 19.7015 19.7395 19.3333 19.7395C18.9652 19.7395 18.6667 20.0443 18.6667 20.4202V31.311C18.6667 31.6869 18.9652 31.9917 19.3333 31.9917C19.7015 31.9917 20 31.6869 20 31.311Z" fill="#AB3996"/>
<path d="M38 0H2C0.895508 0 0 0.914323 0 2.04202V15.6555C0 16.7832 0.895508 17.6975 2 17.6975H38C39.1045 17.6975 40 16.7832 40 15.6555V2.04202C40 0.914323 39.1045 0 38 0ZM4.66667 16.3362V14.9748H35.3333V16.3362H4.66667ZM35.3333 13.6135H4.66667V12.2521H35.3333V13.6135ZM38.6667 15.6555C38.6667 16.0314 38.3682 16.3362 38 16.3362H36.6667V10.8908H3.33333V16.3362H2C1.63184 16.3362 1.33333 16.0314 1.33333 15.6555V2.04202C1.33333 1.66612 1.63184 1.36135 2 1.36135H38C38.3682 1.36135 38.6667 1.66612 38.6667 2.04202V15.6555Z" fill="#AB3996"/>
<path d="M13.3333 4.76472H26.6667V6.12607H13.3333V4.76472Z" fill="#AB3996"/>
<path d="M36 2.7227H37.3333V4.08404H36V2.7227Z" fill="#AB3996"/>
<path d="M33.3333 2.7227H34.6667V4.08404H33.3333V2.7227Z" fill="#AB3996"/>
</svg>
