<svg width="40" height="40" viewBox="0 0 40 40" fill="none" xmlns="http://www.w3.org/2000/svg">
<path d="M20 12.9032C32.9903 12.9032 40 16.5594 40 20V21.9355L37.9019 36.1458C37.5768 38.3432 35.6561 40 33.4342 40H6.56581C4.34452 40 2.42323 38.3432 2.09806 36.1458L0.00709915 22.0303L0.00322723 21.2903H0V20C0 16.5594 7.00968 12.9032 20 12.9032ZM36.6258 35.9568L38.7026 21.9355H37.051C35.3871 21.9355 34.0071 23.1845 33.8413 24.84L33.5445 27.8058L33.4987 27.8013L32.331 38.7097H33.4348C35.0213 38.7097 36.3929 37.5265 36.6258 35.9568ZM12.469 24.2677C12.3761 22.96 11.2755 21.9355 9.96387 21.9355C9.25226 21.9355 8.57226 22.2387 8.09613 22.7684C7.62 23.2981 7.39097 24.0071 7.46645 24.7148L8.96645 38.7097H13.5006L13.1323 33.5484H10.3226V27.0968H12.6716L12.5013 24.7174C12.5013 24.7174 12.5013 24.7174 12.5013 24.7168L12.469 24.2677ZM11.6129 28.3871V32.2581H28.3871V28.3871H11.6129ZM20.6452 33.5484V38.7097H25.2058L25.5742 33.5484H20.6452ZM19.3548 33.5484H14.4258L14.7942 38.7097H19.3548V33.5484ZM13.9645 27.0968H19.3548V24.4471C19.3548 23.0619 18.2284 21.9355 16.8432 21.9355H16.2923C15.5871 21.9355 14.9348 22.2194 14.4542 22.7355C13.9742 23.2516 13.7374 23.9226 13.7871 24.6252L13.9645 27.0968ZM20.6452 27.0968H26.0355L26.2116 24.6252C26.2613 23.9226 26.0245 23.251 25.5445 22.7348C25.0652 22.2194 24.4123 21.9355 23.7071 21.9355H23.1561C21.7716 21.9355 20.6452 23.0619 20.6452 24.4471V27.0968ZM27.329 27.0968H29.6774V33.5484H26.8677L26.4994 38.7097H31.0335L32.5329 24.7142C32.6084 24.0065 32.3794 23.2974 31.9032 22.7677C31.4271 22.2381 30.7471 21.9355 30.0361 21.9355C28.7252 21.9355 27.6245 22.96 27.531 24.2677L27.329 27.0968ZM3.3742 35.9568C3.6071 37.5265 4.97871 38.7097 6.56581 38.7097H7.66968L6.50129 27.8019L6.45549 27.8064L6.15871 24.8406C5.99226 23.1845 4.61226 21.9355 2.94839 21.9355H1.29678L3.3742 35.9568ZM2.94839 20.6452C4.48064 20.6452 5.83677 21.4039 6.65419 22.5806C6.78903 22.3406 6.94968 22.1135 7.13678 21.9052C7.85678 21.1045 8.8871 20.6452 9.96387 20.6452C11.2755 20.6452 12.4361 21.3297 13.1213 22.36C13.2374 22.1832 13.3645 22.0129 13.5103 21.8561C14.2277 21.0865 15.2413 20.6452 16.2929 20.6452H16.8439C18.1574 20.6452 19.3174 21.3155 20.0006 22.331C20.6832 21.3155 21.8432 20.6452 23.1568 20.6452H23.7077C24.7594 20.6452 25.7729 21.0865 26.4897 21.8561C26.6355 22.0129 26.7626 22.1832 26.8787 22.36C27.5632 21.3297 28.7245 20.6452 30.0361 20.6452C31.1129 20.6452 32.1439 21.1045 32.8632 21.9058C33.0503 22.1135 33.211 22.3406 33.3458 22.5813C34.1632 21.4045 35.5194 20.6458 37.0516 20.6458H38.7097V20.0006C38.7097 17.2542 31.0258 14.1942 20 14.1942C8.97419 14.1942 1.29033 17.2542 1.29033 20.0006V20.6458H2.94839V20.6452Z" fill="#AB3996"/>
<path d="M17.6813 9.30323C18.7142 9.76258 20 10.3335 20 11.6129H18.7097C18.7097 11.1723 17.9206 10.8219 17.1574 10.4832C16.1245 10.0239 14.8387 9.4529 14.8387 8.17355C14.8387 6.89419 16.1239 6.32258 17.1574 5.86323C17.92 5.52387 18.7097 5.17355 18.7097 4.73161C18.7097 4.29032 17.9206 3.93935 17.1574 3.60065C16.1245 3.14194 14.8387 2.56968 14.8387 1.29032H16.129C16.129 1.73161 16.9187 2.08258 17.6813 2.42194C18.7148 2.88065 20 3.45226 20 4.73161C20 6.01097 18.7142 6.58323 17.6813 7.04194C16.9181 7.38129 16.129 7.73226 16.129 8.17355C16.129 8.61419 16.9181 8.96452 17.6813 9.30323Z" fill="#AB3996"/>
<path d="M24.1329 7.04258C23.3697 7.38129 22.5806 7.73226 22.5806 8.17355C22.5806 8.61419 23.3697 8.96452 24.1329 9.30323C25.1658 9.76258 26.4516 10.3335 26.4516 11.6129H25.1613C25.1613 11.1723 24.3723 10.8219 23.609 10.4832C22.5761 10.0239 21.2903 9.4529 21.2903 8.17355C21.2903 6.89419 22.5755 6.32258 23.609 5.86323C24.3716 5.52387 25.1613 5.17355 25.1613 4.73161C25.1613 4.29032 24.3723 3.93935 23.609 3.60065C22.5761 3.14194 21.2903 2.56968 21.2903 1.29032H22.5806C22.5806 1.73161 23.3703 2.08258 24.1329 2.42194C25.1665 2.88065 26.4516 3.45226 26.4516 4.73161C26.4516 6.01097 25.1658 6.58323 24.1329 7.04258Z" fill="#AB3996"/>
<path d="M34.1935 12.2581C33.1265 12.2581 32.2581 11.3897 32.2581 10.3226C32.2581 9.25548 33.1265 8.3871 34.1935 8.3871C35.2606 8.3871 36.129 9.25548 36.129 10.3226C36.129 11.3897 35.2606 12.2581 34.1935 12.2581ZM34.1935 9.67742C33.8374 9.67742 33.5484 9.9671 33.5484 10.3226C33.5484 10.6781 33.8374 10.9677 34.1935 10.9677C34.5497 10.9677 34.8387 10.6781 34.8387 10.3226C34.8387 9.9671 34.5497 9.67742 34.1935 9.67742Z" fill="#AB3996"/>
<path d="M5.80645 12.2581C4.73936 12.2581 3.87097 11.3897 3.87097 10.3226C3.87097 9.25548 4.73936 8.3871 5.80645 8.3871C6.87355 8.3871 7.74194 9.25548 7.74194 10.3226C7.74194 11.3897 6.87355 12.2581 5.80645 12.2581ZM5.80645 9.67742C5.45033 9.67742 5.16129 9.9671 5.16129 10.3226C5.16129 10.6781 5.45033 10.9677 5.80645 10.9677C6.16258 10.9677 6.45161 10.6781 6.45161 10.3226C6.45161 9.9671 6.16258 9.67742 5.80645 9.67742Z" fill="#AB3996"/>
<path d="M28.3871 3.87097C27.32 3.87097 26.4516 3.00258 26.4516 1.93548C26.4516 0.868387 27.32 0 28.3871 0C29.4542 0 30.3226 0.868387 30.3226 1.93548C30.3226 3.00258 29.4542 3.87097 28.3871 3.87097ZM28.3871 1.29032C28.031 1.29032 27.7419 1.58 27.7419 1.93548C27.7419 2.29097 28.031 2.58065 28.3871 2.58065C28.7432 2.58065 29.0323 2.29097 29.0323 1.93548C29.0323 1.58 28.7432 1.29032 28.3871 1.29032Z" fill="#AB3996"/>
<path d="M11.6129 3.87097C10.5458 3.87097 9.67742 3.00258 9.67742 1.93548C9.67742 0.868387 10.5458 0 11.6129 0C12.68 0 13.5484 0.868387 13.5484 1.93548C13.5484 3.00258 12.68 3.87097 11.6129 3.87097ZM11.6129 1.29032C11.2568 1.29032 10.9677 1.58 10.9677 1.93548C10.9677 2.29097 11.2568 2.58065 11.6129 2.58065C11.969 2.58065 12.2581 2.29097 12.2581 1.93548C12.2581 1.58 11.969 1.29032 11.6129 1.29032Z" fill="#AB3996"/>
<path d="M27.1323 16.2374C27.6594 16.5884 28.2723 16.7742 28.9052 16.7742H31.6129V18.0645H28.9052C28.0168 18.0645 27.1568 17.8039 26.4168 17.311C25.889 16.96 25.2761 16.7742 24.6432 16.7742H22.5806V15.4839H24.6432C25.5316 15.4839 26.3916 15.7445 27.1323 16.2374Z" fill="#AB3996"/>
<path d="M8.35161 18.1729C9.09226 17.68 9.95226 17.4194 10.8406 17.4194H12.9032V18.7097H10.8406C10.2084 18.7097 9.59484 18.8955 9.06774 19.2465C8.3271 19.7394 7.4671 20 6.57871 20H3.87097V18.7097H6.57871C7.21161 18.7097 7.82452 18.5239 8.35161 18.1729Z" fill="#AB3996"/>
</svg>
