<svg width="40" height="28" viewBox="0 0 40 28" fill="none" xmlns="http://www.w3.org/2000/svg">
<path d="M22.9702 9.85122C22.9702 8.23246 21.6375 6.91587 19.9996 6.91587C18.3614 6.91587 17.0291 8.23246 17.0291 9.85122C17.0291 11.4697 18.3614 12.7866 19.9996 12.7866C21.6375 12.7866 22.9702 11.4697 22.9702 9.85122ZM19.9996 11.6286C19.0078 11.6286 18.2009 10.8313 18.2009 9.85122C18.2009 8.87116 19.0078 8.07384 19.9996 8.07384C20.9914 8.07384 21.7983 8.87116 21.7983 9.85122C21.7983 10.831 20.9914 11.6286 19.9996 11.6286Z" fill="#AB3996"/>
<path d="M8.4873 16.3724H9.42754C10.163 16.3724 10.7618 15.781 10.7618 15.054V14.253C10.7618 14.1647 10.8344 14.0926 10.9238 14.0926H11.7344C12.4701 14.0926 13.0686 13.5013 13.0686 12.7742V11.8454C13.0686 11.1184 12.4701 10.527 11.7344 10.527H10.9238C10.8344 10.527 10.7618 10.4552 10.7618 10.3666V9.56594C10.7618 8.83889 10.163 8.24753 9.42754 8.24753H8.4873C7.75183 8.24753 7.15308 8.83889 7.15308 9.56594V10.3666C7.15308 10.4552 7.08045 10.527 6.99073 10.527H6.18049C5.44471 10.527 4.84627 11.1187 4.84627 11.8454V12.7742C4.84627 13.5013 5.44471 14.0926 6.18049 14.0926H6.99103C7.08045 14.0926 7.15338 14.1647 7.15338 14.253V15.054C7.15338 15.781 7.75183 16.3724 8.4873 16.3724ZM6.99103 12.9346H6.18049C6.09107 12.9346 6.01814 12.8629 6.01814 12.7745V11.8454C6.01814 11.7571 6.09107 11.6853 6.18049 11.6853H6.99103C7.7265 11.6853 8.32525 11.0936 8.32525 10.3669V9.56594C8.32525 9.47758 8.39788 9.40551 8.4876 9.40551H9.42754C9.51696 9.40551 9.58989 9.47758 9.58989 9.56594V10.3669C9.58989 11.0936 10.1883 11.6853 10.9241 11.6853H11.7344C11.8241 11.6853 11.8967 11.7571 11.8967 11.8454V12.7745C11.8967 12.8629 11.8241 12.9346 11.7344 12.9346H10.9241C10.1883 12.9346 9.58989 13.5263 9.58989 14.253V15.054C9.58989 15.1423 9.51696 15.2144 9.42754 15.2144H8.4876C8.39788 15.2144 8.32525 15.1423 8.32525 15.054V14.253C8.32525 13.5263 7.7265 12.9346 6.99103 12.9346Z" fill="#AB3996"/>
<path d="M31.2525 11.5176C32.2544 11.5176 33.0692 10.7122 33.0692 9.72245C33.0692 8.73274 32.2544 7.92728 31.2525 7.92728C30.251 7.92728 29.4361 8.73274 29.4361 9.72245C29.4361 10.7122 30.251 11.5176 31.2525 11.5176ZM31.2525 9.08526C31.6081 9.08526 31.8974 9.37114 31.8974 9.72245C31.8974 10.0738 31.6081 10.3596 31.2525 10.3596C30.8973 10.3596 30.608 10.0738 30.608 9.72245C30.608 9.37114 30.8973 9.08526 31.2525 9.08526Z" fill="#AB3996"/>
<path d="M31.2525 18.1069C32.2544 18.1069 33.0692 17.3014 33.0692 16.3117C33.0692 15.322 32.2544 14.5166 31.2525 14.5166C30.251 14.5166 29.4361 15.322 29.4361 16.3117C29.4361 17.3014 30.251 18.1069 31.2525 18.1069ZM31.2525 15.6745C31.6081 15.6745 31.8974 15.9604 31.8974 16.3117C31.8974 16.663 31.6081 16.9486 31.2525 16.9486C30.8973 16.9486 30.608 16.663 30.608 16.3117C30.608 15.9604 30.8973 15.6745 31.2525 15.6745Z" fill="#AB3996"/>
<path d="M34.5869 14.8121C35.5884 14.8121 36.4036 14.007 36.4036 13.0172C36.4036 12.0272 35.5884 11.2221 34.5869 11.2221C33.5853 11.2221 32.7702 12.0272 32.7702 13.0172C32.7702 14.007 33.5853 14.8121 34.5869 14.8121ZM34.5869 12.3801C34.9424 12.3801 35.2317 12.6656 35.2317 13.0169C35.2317 13.3683 34.9424 13.6541 34.5869 13.6541C34.2313 13.6541 33.942 13.3683 33.942 13.0169C33.942 12.6656 34.2313 12.3801 34.5869 12.3801Z" fill="#AB3996"/>
<path d="M27.9185 11.2221C26.917 11.2221 26.1018 12.0272 26.1018 13.0169C26.1018 14.007 26.917 14.8121 27.9185 14.8121C28.9201 14.8121 29.7352 14.007 29.7352 13.0169C29.7352 12.0272 28.9201 11.2221 27.9185 11.2221ZM27.9185 13.6541C27.563 13.6541 27.2737 13.3683 27.2737 13.0172C27.2737 12.6659 27.563 12.3801 27.9185 12.3801C28.2741 12.3801 28.5631 12.6659 28.5631 13.0172C28.5631 13.3683 28.2741 13.6541 27.9185 13.6541Z" fill="#AB3996"/>
<path d="M0.636108 18.8152C0.650146 18.8161 0.664184 18.8164 0.678222 18.8164C0.982784 18.8164 1.24004 18.5836 1.26202 18.2788C1.74022 11.6424 3.96096 6.96804 5.24177 4.77211C5.54694 4.24921 6.11548 3.92444 6.72552 3.92444H13.3331C13.7588 3.92444 14.1668 4.08004 14.4824 4.3623C15.1471 4.95757 15.83 5.4099 16.7645 5.4099H23.2344C23.9516 5.4099 24.6394 5.14785 25.1711 4.67169C25.6139 4.27515 26.0326 3.92414 26.6658 3.92414H33.2734C33.8834 3.92414 34.452 4.24921 34.7571 4.77211C35.203 5.53685 35.6321 6.3794 36.0318 7.27683C36.1622 7.56934 36.5079 7.70202 36.8039 7.57356C37.1003 7.44479 37.2348 7.10283 37.1042 6.81032C36.6877 5.8749 36.2394 4.99436 35.7724 4.19373C35.358 3.48357 34.6549 2.99082 33.8593 2.82648V1.7846C33.8593 0.800629 33.0491 0 32.0533 0H27.8862C26.8904 0 26.0802 0.800629 26.0802 1.7846V2.82618C25.5803 2.9284 25.114 3.16 24.7298 3.50437C24.287 3.90092 23.868 4.25193 23.2347 4.25193H16.7645C16.3388 4.25193 15.9304 4.09633 15.6152 3.81377C15.1065 3.35842 14.61 2.9676 13.919 2.82618V1.7846C13.919 0.800629 13.1088 0 12.113 0H7.9459C6.95013 0 6.13989 0.800629 6.13989 1.7846V2.82678C5.34431 2.99113 4.64119 3.48387 4.22677 4.19373C2.8953 6.4756 0.588196 11.3291 0.0932064 18.1964C0.0703185 18.5155 0.313236 18.7923 0.636108 18.8152ZM27.252 1.7846C27.252 1.43932 27.5365 1.15797 27.8859 1.15797H32.0533C32.4027 1.15797 32.6875 1.43932 32.6875 1.7846V2.76647H27.2517L27.252 1.7846ZM7.31145 1.7846C7.31145 1.43932 7.59618 1.15797 7.9456 1.15797H12.113C12.4625 1.15797 12.7469 1.43932 12.7469 1.7846V2.76647H7.31145V1.7846Z" fill="#AB3996"/>
<path d="M3.61825 27.8498C3.98141 27.9475 4.37874 28 4.81331 28C7.59709 28 10.9302 25.618 13.3136 21.7898C13.6236 21.2919 14.1848 20.9825 14.7784 20.9825H25.2205C25.8141 20.9825 26.3753 21.2919 26.6853 21.7898C29.069 25.6183 32.4018 28.0003 35.1856 28C35.5967 28 35.9961 27.9481 36.3785 27.8411C37.731 27.4629 40 26.0471 40 20.8133C40 16.7707 39.3411 12.8529 38.0423 9.16909C37.9358 8.86693 37.6013 8.70771 37.2962 8.81295C36.9904 8.91789 36.829 9.24809 36.9355 9.55025C38.1912 13.111 38.8281 16.9007 38.8281 20.8133C38.8281 24.1277 37.8449 26.2278 36.0593 26.7271C34.9289 27.0432 33.4949 26.7042 32.0213 25.773C30.4475 24.7782 28.907 23.1483 27.6835 21.183C27.1617 20.345 26.2181 19.8245 25.2208 19.8245H14.7784C13.7811 19.8245 12.8372 20.345 12.3157 21.183C11.0919 23.1483 9.55142 24.7782 7.97764 25.773C6.50427 26.7042 5.07026 27.0432 3.9396 26.7271C1.39812 26.0164 1.15734 22.7071 1.1726 20.5576C1.17474 20.238 0.91412 19.9768 0.590638 19.9747C0.269901 19.9714 0.00287533 20.2298 0.00043395 20.5495C-0.0200126 23.3036 0.674865 27.0582 3.61825 27.8498Z" fill="#AB3996"/>
</svg>
