<svg width="38" height="40" viewBox="0 0 38 40" fill="none" xmlns="http://www.w3.org/2000/svg">
<mask id="path-1-inside-1" fill="white">
<path d="M28.0869 19.1666V37.5C28.0869 37.9602 27.7171 38.3334 27.2608 38.3334H2.47819C2.02203 38.3334 1.65215 37.9602 1.65215 37.5V2.5C1.65215 2.03977 2.02203 1.66664 2.47826 1.66664H27.2609V0H2.47826C1.10957 0 0 1.1193 0 2.5V37.5C0 38.8807 1.10957 40 2.47826 40H27.2609C28.6296 40 29.7392 38.8807 29.7392 37.5V19.1666H28.0869Z"/>
<path d="M22.3044 5V3.33336H4.13041C3.67418 3.33336 3.3043 3.70648 3.3043 4.16672V22.5C3.3043 22.9602 3.67418 23.3334 4.13041 23.3334H7.43479V21.6667H4.95653V5H22.3044Z"/>
<path d="M14.8696 21.6666C10.7635 21.6666 7.43479 25.0245 7.43479 29.1666C7.43479 33.3088 10.7635 36.6666 14.8696 36.6666C18.9738 36.662 22.2998 33.3069 22.3044 29.1666C22.3044 25.0245 18.9757 21.6666 14.8696 21.6666ZM14.8696 35C11.6759 35 9.08694 32.3884 9.08694 29.1666C9.08694 25.945 11.6759 23.3333 14.8696 23.3333C18.0615 23.3374 20.6481 25.9466 20.6522 29.1666C20.6522 32.3884 18.0632 35 14.8696 35Z"/>
<path d="M14.8696 25.8334C13.0447 25.8334 11.5652 27.3257 11.5652 29.1667C11.5652 31.0077 13.0447 32.5 14.8696 32.5C16.6945 32.5 18.174 31.0077 18.174 29.1666C18.1739 27.3257 16.6945 25.8334 14.8696 25.8334ZM14.8696 30.8334C13.9571 30.8334 13.2174 30.0872 13.2174 29.1667C13.2174 28.2463 13.9571 27.5001 14.8696 27.5001C15.7821 27.5001 16.5217 28.2463 16.5217 29.1667C16.5217 30.0871 15.7821 30.8334 14.8696 30.8334Z"/>
<path d="M15.6956 17.5H4.95653V19.1666H15.6956V17.5Z"/>
<path d="M23.1304 14.1666H19.826C18.4573 14.1666 17.3478 15.2859 17.3478 16.6666V18.3333C17.3478 19.714 18.4573 20.8333 19.826 20.8333H23.1304C24.4991 20.8333 25.6087 19.714 25.6087 18.3333V16.6666C25.6087 15.2859 24.4991 14.1666 23.1304 14.1666ZM23.9565 18.3334C23.9565 18.7936 23.5866 19.1667 23.1304 19.1667H19.826C19.3698 19.1667 18.9999 18.7936 18.9999 18.3334V16.6667C18.9999 16.2065 19.3698 15.8334 19.826 15.8334H23.1304C23.5866 15.8334 23.9565 16.2065 23.9565 16.6667V18.3334Z"/>
<path d="M35.5217 11.6666H32.2174C30.8487 11.6666 29.7391 12.7859 29.7391 14.1666V15.8333C29.7391 17.214 30.8487 18.3333 32.2174 18.3333H35.5217C36.8904 18.3333 38 17.214 38 15.8333V14.1666C38 12.7859 36.8904 11.6666 35.5217 11.6666ZM36.3478 15.8334C36.3478 16.2936 35.978 16.6667 35.5217 16.6667H32.2174C31.7611 16.6667 31.3912 16.2936 31.3912 15.8334V14.1667C31.3912 13.7065 31.7611 13.3334 32.2174 13.3334H35.5217C35.978 13.3334 36.3478 13.7065 36.3478 14.1667V15.8334Z"/>
<path d="M37.972 2.28515C37.8543 1.84047 37.4016 1.57633 36.9608 1.695L24.5694 5.02836C24.208 5.1257 23.9565 5.45594 23.9564 5.83336V17.5H25.6086V6.47414L36.3478 3.58336V15H38V2.5C38 2.42742 37.9906 2.35523 37.972 2.28515Z"/>
<path d="M8.26083 6.66664H6.60868V8.33328H8.26083V6.66664Z"/>
<path d="M11.5652 6.66664H9.91306V8.33328H11.5652V6.66664Z"/>
<path d="M14.8696 10H6.60868V11.6666H14.8696V10Z"/>
</mask>
<path d="M28.0869 19.1666V37.5C28.0869 37.9602 27.7171 38.3334 27.2608 38.3334H2.47819C2.02203 38.3334 1.65215 37.9602 1.65215 37.5V2.5C1.65215 2.03977 2.02203 1.66664 2.47826 1.66664H27.2609V0H2.47826C1.10957 0 0 1.1193 0 2.5V37.5C0 38.8807 1.10957 40 2.47826 40H27.2609C28.6296 40 29.7392 38.8807 29.7392 37.5V19.1666H28.0869Z" fill="#AB3996"/>
<path d="M22.3044 5V3.33336H4.13041C3.67418 3.33336 3.3043 3.70648 3.3043 4.16672V22.5C3.3043 22.9602 3.67418 23.3334 4.13041 23.3334H7.43479V21.6667H4.95653V5H22.3044Z" fill="#AB3996"/>
<path d="M14.8696 21.6666C10.7635 21.6666 7.43479 25.0245 7.43479 29.1666C7.43479 33.3088 10.7635 36.6666 14.8696 36.6666C18.9738 36.662 22.2998 33.3069 22.3044 29.1666C22.3044 25.0245 18.9757 21.6666 14.8696 21.6666ZM14.8696 35C11.6759 35 9.08694 32.3884 9.08694 29.1666C9.08694 25.945 11.6759 23.3333 14.8696 23.3333C18.0615 23.3374 20.6481 25.9466 20.6522 29.1666C20.6522 32.3884 18.0632 35 14.8696 35Z" fill="#AB3996"/>
<path d="M14.8696 25.8334C13.0447 25.8334 11.5652 27.3257 11.5652 29.1667C11.5652 31.0077 13.0447 32.5 14.8696 32.5C16.6945 32.5 18.174 31.0077 18.174 29.1666C18.1739 27.3257 16.6945 25.8334 14.8696 25.8334ZM14.8696 30.8334C13.9571 30.8334 13.2174 30.0872 13.2174 29.1667C13.2174 28.2463 13.9571 27.5001 14.8696 27.5001C15.7821 27.5001 16.5217 28.2463 16.5217 29.1667C16.5217 30.0871 15.7821 30.8334 14.8696 30.8334Z" fill="#AB3996"/>
<path d="M15.6956 17.5H4.95653V19.1666H15.6956V17.5Z" fill="#AB3996"/>
<path d="M23.1304 14.1666H19.826C18.4573 14.1666 17.3478 15.2859 17.3478 16.6666V18.3333C17.3478 19.714 18.4573 20.8333 19.826 20.8333H23.1304C24.4991 20.8333 25.6087 19.714 25.6087 18.3333V16.6666C25.6087 15.2859 24.4991 14.1666 23.1304 14.1666ZM23.9565 18.3334C23.9565 18.7936 23.5866 19.1667 23.1304 19.1667H19.826C19.3698 19.1667 18.9999 18.7936 18.9999 18.3334V16.6667C18.9999 16.2065 19.3698 15.8334 19.826 15.8334H23.1304C23.5866 15.8334 23.9565 16.2065 23.9565 16.6667V18.3334Z" fill="#AB3996"/>
<path d="M35.5217 11.6666H32.2174C30.8487 11.6666 29.7391 12.7859 29.7391 14.1666V15.8333C29.7391 17.214 30.8487 18.3333 32.2174 18.3333H35.5217C36.8904 18.3333 38 17.214 38 15.8333V14.1666C38 12.7859 36.8904 11.6666 35.5217 11.6666ZM36.3478 15.8334C36.3478 16.2936 35.978 16.6667 35.5217 16.6667H32.2174C31.7611 16.6667 31.3912 16.2936 31.3912 15.8334V14.1667C31.3912 13.7065 31.7611 13.3334 32.2174 13.3334H35.5217C35.978 13.3334 36.3478 13.7065 36.3478 14.1667V15.8334Z" fill="#AB3996"/>
<path d="M37.972 2.28515C37.8543 1.84047 37.4016 1.57633 36.9608 1.695L24.5694 5.02836C24.208 5.1257 23.9565 5.45594 23.9564 5.83336V17.5H25.6086V6.47414L36.3478 3.58336V15H38V2.5C38 2.42742 37.9906 2.35523 37.972 2.28515Z" fill="#AB3996"/>
<path d="M8.26083 6.66664H6.60868V8.33328H8.26083V6.66664Z" fill="#AB3996"/>
<path d="M11.5652 6.66664H9.91306V8.33328H11.5652V6.66664Z" fill="#AB3996"/>
<path d="M14.8696 10H6.60868V11.6666H14.8696V10Z" fill="#AB3996"/>
<path d="M28.0869 19.1666V37.5C28.0869 37.9602 27.7171 38.3334 27.2608 38.3334H2.47819C2.02203 38.3334 1.65215 37.9602 1.65215 37.5V2.5C1.65215 2.03977 2.02203 1.66664 2.47826 1.66664H27.2609V0H2.47826C1.10957 0 0 1.1193 0 2.5V37.5C0 38.8807 1.10957 40 2.47826 40H27.2609C28.6296 40 29.7392 38.8807 29.7392 37.5V19.1666H28.0869Z" stroke="white" stroke-width="0.4" mask="url(#path-1-inside-1)"/>
<path d="M22.3044 5V3.33336H4.13041C3.67418 3.33336 3.3043 3.70648 3.3043 4.16672V22.5C3.3043 22.9602 3.67418 23.3334 4.13041 23.3334H7.43479V21.6667H4.95653V5H22.3044Z" stroke="white" stroke-width="0.4" mask="url(#path-1-inside-1)"/>
<path d="M14.8696 21.6666C10.7635 21.6666 7.43479 25.0245 7.43479 29.1666C7.43479 33.3088 10.7635 36.6666 14.8696 36.6666C18.9738 36.662 22.2998 33.3069 22.3044 29.1666C22.3044 25.0245 18.9757 21.6666 14.8696 21.6666ZM14.8696 35C11.6759 35 9.08694 32.3884 9.08694 29.1666C9.08694 25.945 11.6759 23.3333 14.8696 23.3333C18.0615 23.3374 20.6481 25.9466 20.6522 29.1666C20.6522 32.3884 18.0632 35 14.8696 35Z" stroke="white" stroke-width="0.4" mask="url(#path-1-inside-1)"/>
<path d="M14.8696 25.8334C13.0447 25.8334 11.5652 27.3257 11.5652 29.1667C11.5652 31.0077 13.0447 32.5 14.8696 32.5C16.6945 32.5 18.174 31.0077 18.174 29.1666C18.1739 27.3257 16.6945 25.8334 14.8696 25.8334ZM14.8696 30.8334C13.9571 30.8334 13.2174 30.0872 13.2174 29.1667C13.2174 28.2463 13.9571 27.5001 14.8696 27.5001C15.7821 27.5001 16.5217 28.2463 16.5217 29.1667C16.5217 30.0871 15.7821 30.8334 14.8696 30.8334Z" stroke="white" stroke-width="0.4" mask="url(#path-1-inside-1)"/>
<path d="M15.6956 17.5H4.95653V19.1666H15.6956V17.5Z" stroke="white" stroke-width="0.4" mask="url(#path-1-inside-1)"/>
<path d="M23.1304 14.1666H19.826C18.4573 14.1666 17.3478 15.2859 17.3478 16.6666V18.3333C17.3478 19.714 18.4573 20.8333 19.826 20.8333H23.1304C24.4991 20.8333 25.6087 19.714 25.6087 18.3333V16.6666C25.6087 15.2859 24.4991 14.1666 23.1304 14.1666ZM23.9565 18.3334C23.9565 18.7936 23.5866 19.1667 23.1304 19.1667H19.826C19.3698 19.1667 18.9999 18.7936 18.9999 18.3334V16.6667C18.9999 16.2065 19.3698 15.8334 19.826 15.8334H23.1304C23.5866 15.8334 23.9565 16.2065 23.9565 16.6667V18.3334Z" stroke="white" stroke-width="0.4" mask="url(#path-1-inside-1)"/>
<path d="M35.5217 11.6666H32.2174C30.8487 11.6666 29.7391 12.7859 29.7391 14.1666V15.8333C29.7391 17.214 30.8487 18.3333 32.2174 18.3333H35.5217C36.8904 18.3333 38 17.214 38 15.8333V14.1666C38 12.7859 36.8904 11.6666 35.5217 11.6666ZM36.3478 15.8334C36.3478 16.2936 35.978 16.6667 35.5217 16.6667H32.2174C31.7611 16.6667 31.3912 16.2936 31.3912 15.8334V14.1667C31.3912 13.7065 31.7611 13.3334 32.2174 13.3334H35.5217C35.978 13.3334 36.3478 13.7065 36.3478 14.1667V15.8334Z" stroke="white" stroke-width="0.4" mask="url(#path-1-inside-1)"/>
<path d="M37.972 2.28515C37.8543 1.84047 37.4016 1.57633 36.9608 1.695L24.5694 5.02836C24.208 5.1257 23.9565 5.45594 23.9564 5.83336V17.5H25.6086V6.47414L36.3478 3.58336V15H38V2.5C38 2.42742 37.9906 2.35523 37.972 2.28515Z" stroke="white" stroke-width="0.4" mask="url(#path-1-inside-1)"/>
<path d="M8.26083 6.66664H6.60868V8.33328H8.26083V6.66664Z" stroke="white" stroke-width="0.4" mask="url(#path-1-inside-1)"/>
<path d="M11.5652 6.66664H9.91306V8.33328H11.5652V6.66664Z" stroke="white" stroke-width="0.4" mask="url(#path-1-inside-1)"/>
<path d="M14.8696 10H6.60868V11.6666H14.8696V10Z" stroke="white" stroke-width="0.4" mask="url(#path-1-inside-1)"/>
</svg>
