<svg width="32" height="40" viewBox="0 0 32 40" fill="none" xmlns="http://www.w3.org/2000/svg">
<path d="M24.0781 16.7314L24.0781 16.7314C23.7806 16.9436 23.7031 17.3693 23.9091 17.6811L23.8257 17.7362L23.9091 17.6811C25.1432 19.5497 25.9974 21.3095 26.3746 22.7704C26.5402 23.4123 26.608 23.9803 26.5755 24.4504C26.5431 24.9196 26.41 25.3013 26.1638 25.5572C25.7924 25.9432 25.1613 26.0634 24.377 25.9658C23.5883 25.8676 22.62 25.5468 21.542 25.0168C19.929 24.224 18.1827 23.0302 16.4471 21.5486L16.374 21.4862L16.4335 21.4107C17.4267 20.1484 17.5011 18.3593 16.6561 17.0178L16.6144 16.9516L16.6686 16.8952L20.5807 12.8293L20.6328 12.7751L20.6994 12.8101C21.0288 12.9838 21.3897 13.071 21.7506 13.071C22.3448 13.071 22.9394 12.836 23.3927 12.365C24.3006 11.4213 24.3006 9.88413 23.3927 8.9405C22.4869 7.99912 21.0143 7.99905 20.1085 8.94051C19.3794 9.69837 19.2357 10.84 19.6796 11.7499L19.7103 11.8127L19.6618 11.8631L15.75 15.9287L15.6914 15.9897L15.6216 15.9419C15.045 15.548 14.3709 15.3363 13.6651 15.3363C12.8337 15.3363 12.0459 15.6295 11.4101 16.1692L11.331 16.2364L11.2668 16.1548C9.86057 14.3683 8.72684 12.5727 7.9716 10.9131L8.06262 10.8717L7.9716 10.9131C7.46188 9.79298 7.15369 8.78761 7.05944 7.96956C6.96577 7.15655 7.08099 6.50422 7.45107 6.11957M24.0781 16.7314L7.52313 6.18891M24.0781 16.7314C24.3731 16.5208 24.7771 16.5974 24.9816 16.907C26.3041 18.9094 27.2195 20.8142 27.6331 22.4155C28.2327 24.7379 27.6512 25.9328 27.083 26.5233C24.8335 28.8611 21.8008 30.1216 18.4659 30.1217C18.1752 30.1217 17.8826 30.1122 17.5877 30.0929C16.5021 30.022 15.4284 29.8209 14.383 29.4996L14.2537 29.4599V29.5952V33.7441V33.8441H14.3537H16.8182C19.6637 33.8441 21.9855 36.2516 21.9855 39.2188C21.9855 39.5986 21.6901 39.9 21.3339 39.9H0.751682C0.395433 39.9 0.1 39.5986 0.1 39.2188C0.1 36.2516 2.42174 33.8441 5.26741 33.8441H7.05694H7.1312L7.15267 33.773L9.24525 26.8431C9.24525 26.8431 9.24526 26.8431 9.24527 26.8431C9.24532 26.843 9.24556 26.8423 9.24622 26.8405L9.24652 26.8397C9.24741 26.8374 9.24919 26.8326 9.25077 26.8278L9.27233 26.7623L9.21878 26.7189C8.68817 26.2886 8.17803 25.8212 7.69291 25.317C4.95733 22.4737 3.32545 18.8195 3.09625 15.0283L2.99643 15.0343M24.0781 16.7314L11.2516 4.72719M7.45107 6.11957L7.52313 6.18891M7.45107 6.11957C7.45107 6.11957 7.45107 6.11958 7.45107 6.11958L7.52313 6.18891M7.45107 6.11957C7.73019 5.82944 8.17338 5.6866 8.73475 5.68461C9.29744 5.68262 9.99201 5.82169 10.793 6.11084C12.3957 6.68936 14.4417 7.87489 16.7431 9.77363M7.52313 6.18891C8.53512 5.13695 12.0882 6.06289 16.6794 9.85078M16.7431 9.77363L16.6794 9.85078M16.7431 9.77363C17.0239 10.0052 17.4319 9.95749 17.6561 9.66392L17.6561 9.66391C17.8821 9.36805 17.8336 8.93765 17.5506 8.70408C15.3018 6.84876 13.1115 5.50757 11.2175 4.8212L11.2516 4.72719M16.7431 9.77363C16.7431 9.77364 16.7431 9.77364 16.7431 9.77364L16.6794 9.85078M16.6794 9.85078L6.53282 5.1528M11.2516 4.72719C8.5264 3.73953 7.14226 4.37562 6.46078 5.08344M11.2516 4.72719L11.2175 4.8212C9.86599 4.33139 8.85627 4.24762 8.10566 4.36824C7.3566 4.48862 6.85952 4.81347 6.53282 5.1528M6.46078 5.08344L6.46018 5.08398C3.99361 7.64766 2.76341 11.1814 2.99643 15.0343M6.46078 5.08344L6.53287 5.15274L6.53282 5.1528M6.46078 5.08344L6.53282 5.1528M2.99643 15.0343L3.09625 15.0283C2.86475 11.2006 4.08682 7.69501 6.53224 5.15332L6.53231 5.15325L6.53282 5.1528M2.99643 15.0343L6.53282 5.1528M15.2722 17.3898L15.2724 17.3899L15.2728 17.3904L15.2729 17.3905L15.2731 17.3907L15.2737 17.3913L15.2722 17.3898ZM15.2722 17.3898C14.8437 16.9447 14.2727 16.6987 13.6651 16.6987C13.1483 16.6987 12.6583 16.8771 12.2594 17.2042L12.1804 17.2691L12.2469 17.3467C12.726 17.9051 13.2293 18.4596 13.7546 19.0056L13.8267 18.9363L13.7546 19.0056C14.2641 19.535 14.7812 20.0431 15.302 20.5273L15.3829 20.6025M15.2722 17.3898L15.3829 20.6025M15.3829 20.6025L15.4497 20.5146M15.3829 20.6025L15.4497 20.5146M15.4497 20.5146C16.1515 19.5912 16.0938 18.2446 15.2738 17.3914L15.4497 20.5146ZM23.4398 14.7671L23.4401 14.7675C23.6673 15.0469 23.642 15.4663 23.3802 15.7136C23.2551 15.8319 23.0988 15.8895 22.9434 15.8895C22.7674 15.8895 22.5914 15.8155 22.4623 15.668C22.4537 15.6582 22.4441 15.6465 22.4366 15.6369L22.4364 15.6366C22.208 15.3436 22.2516 14.9132 22.5314 14.6765C22.8075 14.443 23.2112 14.4831 23.4398 14.7671ZM10.5 27.6586L10.388 27.5848L10.3492 27.7132L8.53673 33.7152L8.49781 33.8441H8.63247H12.8502H12.9502V33.7441V29.0426V28.9768L12.8898 28.9507C12.0656 28.596 11.266 28.1639 10.5 27.6586ZM20.5066 38.5375H20.6281L20.6048 38.4183C20.2471 36.5908 18.6877 35.2066 16.8181 35.2066H5.26726C3.39766 35.2066 1.83817 36.5908 1.48047 38.4183L1.45714 38.5375H1.57861H20.5066ZM5.85084 8.64631L5.79819 8.35843L5.66366 8.61833C4.70018 10.4797 4.25803 12.6458 4.39682 14.9423C4.60609 18.4031 6.10371 21.744 8.61174 24.3507C12.9364 28.8456 19.1798 29.9592 23.7537 27.4146L23.9918 27.2821L23.7246 27.2291C22.9051 27.0666 21.9871 26.7413 20.9875 26.2499C18.4074 24.9816 15.5117 22.7529 12.8358 19.9718C10.16 17.1908 8.01531 14.1807 6.79459 11.4983C6.3207 10.4569 6.00703 9.50036 5.85084 8.64631ZM21.7506 9.59594C21.4881 9.59594 21.2262 9.69986 21.0274 9.90652C20.6311 10.3184 20.6311 10.9868 21.0274 11.3985C21.4257 11.8126 22.0755 11.8126 22.4738 11.3986C22.87 10.9867 22.87 10.3183 22.4738 9.90645C22.275 9.69986 22.013 9.59594 21.7506 9.59594ZM21.1103 4.95195C21.1103 4.57203 21.4058 4.2707 21.762 4.2707C25.1357 4.2707 27.8872 7.12468 27.8871 10.6407C27.8871 11.0206 27.5917 11.322 27.2355 11.322C26.8792 11.322 26.5838 11.0206 26.5838 10.6407C26.5838 7.88313 24.4244 5.6332 21.762 5.6332C21.4058 5.6332 21.1103 5.33187 21.1103 4.95195ZM21.1103 0.78125C21.1103 0.401329 21.4058 0.1 21.762 0.1C27.3485 0.1 31.9 4.82499 31.9 10.6407C31.9 11.0206 31.6046 11.322 31.2483 11.322C30.8921 11.322 30.5966 11.0206 30.5966 10.6407C30.5966 5.58336 26.6371 1.4625 21.762 1.4625C21.4058 1.4625 21.1103 1.16117 21.1103 0.78125Z" fill="#AB3996" stroke="white" stroke-width="0.2"/>
</svg>
