<svg width="40" height="40" viewBox="0 0 40 40" fill="none" xmlns="http://www.w3.org/2000/svg">
<path d="M24.6664 21.3376H25.6504C26.0019 19.5366 27.7473 18.3614 29.5487 18.7129C30.5873 18.9156 31.4673 19.6006 31.9184 20.5575C32.7008 18.8977 34.6811 18.1862 36.3413 18.9686C37.2985 19.4195 37.9836 20.2993 38.1863 21.3376H39.3333C39.7014 21.3375 39.9999 21.6358 40 22.0038V39.3335C40.0001 39.7015 39.7018 39.9999 39.3337 40H24.6667C24.2986 40.0001 24.0001 39.7018 24 39.3338V22.0041C24 21.6361 24.2983 21.3377 24.6664 21.3376ZM28.9184 19.9843C28.0659 19.9871 27.3094 20.5307 27.0349 21.3375H30.8018C30.5274 20.5307 29.7708 19.9872 28.9184 19.9843ZM34.9183 19.9843C34.0659 19.9871 33.3093 20.5307 33.0348 21.3375H36.8018C36.5273 20.5307 35.7708 19.9872 34.9183 19.9843ZM35.3333 38.667H38.6667V22.6706H35.3333V38.667ZM30 38.667H34V22.6706H30V38.667ZM25.3334 38.667H28.6667V22.6706H25.3334V38.667Z" fill="#AB3996"/>
<path d="M36.1605 11.5716C36.7798 11.0254 36.8391 10.0807 36.2928 9.46148C36.2515 9.41465 36.2073 9.3705 36.1605 9.32926C35.6284 8.80471 35.3302 8.08787 35.3333 7.34079H36.6667C36.668 7.76928 36.8522 8.17677 37.1728 8.46095C38.2715 9.55337 38.2763 11.3294 37.1836 12.4278C37.18 12.4314 37.1764 12.435 37.1728 12.4385C36.5529 12.9859 36.4943 13.932 37.0418 14.5517C37.0827 14.5981 37.1265 14.6419 37.1728 14.6828C37.7051 15.2075 38.0033 15.9246 38 16.6719H36.6667C36.6651 16.2429 36.481 15.8349 36.1605 15.5498C35.0617 14.4569 35.0571 12.6804 36.1502 11.5818C36.1536 11.5784 36.1571 11.575 36.1605 11.5716Z" fill="#AB3996"/>
<path d="M31.4939 11.5716C32.1132 11.0254 32.1724 10.0807 31.6261 9.46148C31.5849 9.41465 31.5406 9.3705 31.4939 9.32926C30.9618 8.80471 30.6635 8.08787 30.6667 7.34079H32C32.0014 7.76928 32.1855 8.17677 32.5062 8.46095C33.6048 9.55337 33.6097 11.3294 32.5169 12.4278C32.5133 12.4314 32.5098 12.435 32.5062 12.4385C31.8863 12.9859 31.8276 13.932 32.3751 14.5517C32.416 14.5981 32.4598 14.6419 32.5062 14.6828C33.0384 15.2075 33.3366 15.9246 33.3333 16.6719H32C31.9984 16.2429 31.8144 15.8349 31.4939 15.5498C30.395 14.4569 30.3904 12.6804 31.4835 11.5818C31.4869 11.5784 31.4904 11.575 31.4939 11.5716Z" fill="#AB3996"/>
<path d="M26.8272 11.5716C27.4465 11.0254 27.5058 10.0807 26.9594 9.46148C26.9182 9.41465 26.8739 9.3705 26.8272 9.32926C26.2951 8.80471 25.9969 8.08787 26 7.34079H27.3334C27.3347 7.76928 27.5189 8.17677 27.8395 8.46095C28.9382 9.55337 28.943 11.3294 27.8503 12.4278C27.8467 12.4314 27.8431 12.435 27.8395 12.4385C27.2196 12.9859 27.1609 13.932 27.7084 14.5517C27.7494 14.5981 27.7932 14.6419 27.8395 14.6828C28.3718 15.2075 28.6699 15.9246 28.6667 16.6719H27.3334C27.3318 16.2429 27.1477 15.8349 26.8272 15.5498C25.7284 14.4569 25.7238 12.6804 26.8169 11.5818C26.8203 11.5784 26.8238 11.575 26.8272 11.5716Z" fill="#AB3996"/>
<path d="M6.66674 18.6715V12.6729L3.39983 15.1222C2.5835 15.7349 1.42491 15.5699 0.81208 14.7538C0.484913 14.318 0.366749 13.7601 0.489166 13.2292C0.599083 12.7649 0.881168 12.3595 1.2785 12.0951L8.62157 6.93963C6.99732 5.44248 6.89457 2.9123 8.39207 1.28843C9.88956 -0.335453 12.4203 -0.43818 14.0446 1.05898C15.6688 2.55614 15.7716 5.08631 14.2741 6.71019C14.2675 6.71735 14.2608 6.72452 14.2541 6.7316C14.2945 6.7461 14.3332 6.76434 14.3701 6.78625L22.0838 11.9322C22.3671 12.1105 22.5992 12.3595 22.7572 12.6546C23.1075 13.3218 23.047 14.1303 22.6015 14.7382C21.9833 15.5846 20.807 15.7923 19.9362 15.2087L16 12.585V18.6715H21.3333V20.0046H16V27.3596C15.9906 28.8285 14.7918 30.0116 13.3226 30.0022C12.5592 29.9973 11.8346 29.6647 11.3333 29.0891C10.3686 30.1969 8.68815 30.313 7.57998 29.3485C7.00415 28.8473 6.67149 28.123 6.66665 27.3596V20.0046H0V18.6715H6.66674ZM13.9044 3.28514C13.6599 2.38617 12.9579 1.68367 12.059 1.43839C10.6353 1.04182 9.15965 1.87421 8.76307 3.29755C8.6324 3.76653 8.63215 4.26216 8.7624 4.73122C9.0069 5.63018 9.7089 6.33269 10.6078 6.57797C12.0315 6.97454 13.5071 6.14215 13.9037 4.71881C14.0345 4.24992 14.0347 3.7542 13.9044 3.28514ZM12.0001 27.3596C12.0075 28.089 12.6039 28.6748 13.3334 28.6693C14.0629 28.6748 14.6593 28.089 14.6667 27.3596V19.314C14.6533 18.5777 14.0456 17.9918 13.3091 18.0052C12.5916 18.0182 12.0131 18.5966 12.0001 19.314V27.3596ZM8.00007 27.3596C8.01307 28.0959 8.62048 28.6822 9.3569 28.6692C10.075 28.6565 10.6541 28.0776 10.6667 27.3596V19.314C10.6533 18.5777 10.0456 17.9918 9.30915 18.0052C8.59165 18.0182 8.01307 18.5966 8.00007 19.314V27.3596ZM6.93332 10.8068C7.22773 10.5858 7.64548 10.6452 7.86657 10.9396C7.95323 11.055 8.00015 11.1955 8.00007 11.3398V17.0395C9.09657 16.3896 10.5014 16.6195 11.3334 17.585C12.1654 16.6195 13.5702 16.3896 14.6667 17.0395V11.3399C14.6667 10.9718 14.9651 10.6734 15.3333 10.6734C15.465 10.6734 15.5936 10.7124 15.7032 10.7853L20.6759 14.0997C20.9633 14.2912 21.3517 14.2136 21.5433 13.9261C21.6326 13.7921 21.6669 13.6288 21.6387 13.4702C21.6097 13.3019 21.5124 13.153 21.3698 13.0588L13.7979 8.00722H9.42098L1.99458 13.2215C1.76683 13.3833 1.708 13.6963 1.86141 13.9297C2.01958 14.1666 2.33983 14.2304 2.57674 14.0722C2.5845 14.067 2.59216 14.0616 2.59966 14.0559L6.93332 10.8068Z" fill="#AB3996"/>
</svg>
