<svg width="40" height="38" viewBox="0 0 40 38" fill="none" xmlns="http://www.w3.org/2000/svg">
<path d="M35.6481 21.216H4.34374C2.03326 21.216 0.15 23.0819 0.15 25.3847V33.6813C0.15 35.9763 2.02546 37.85 4.34374 37.85H35.6563C37.9667 37.85 39.85 35.9841 39.85 33.6813L39.85 25.3771L39.85 25.3766M35.6481 21.216L40 33.6813C40 36.0679 38.0486 38 35.6563 38H4.34374C1.94325 38 0 36.0598 0 33.6813V25.3847C0 22.9981 1.95142 21.066 4.34374 21.066H35.6481C38.0404 21.066 39.9918 22.9981 40 25.3766H39.85M35.6481 21.216C37.9585 21.216 39.8418 23.0818 39.85 25.3766M35.6481 21.216L39.85 25.3766M38.1369 33.8231H38.1496V33.6731V25.3766C38.1496 24.0103 37.0283 22.8968 35.6563 22.8968H4.34374C2.97166 22.8968 1.85041 24.0103 1.85041 25.3766V33.6731C1.85041 35.0394 2.97166 36.153 4.34374 36.153H35.6481C36.9696 36.153 38.0584 35.12 38.1369 33.8231ZM27.9816 10.8802L27.9814 10.8805C27.8148 11.1151 27.5511 11.2395 27.2872 11.2395C27.1189 11.2395 26.9494 11.1905 26.8172 11.0854L26.8174 11.0851L26.8102 11.0801C24.8578 9.70646 22.5414 8.97456 20.1266 8.97456C17.7039 8.97456 15.3955 9.69819 13.4427 11.0803C13.0606 11.3495 12.5254 11.259 12.2552 10.8802C11.9851 10.5015 12.0752 9.97046 12.4563 9.70176L12.4565 9.70163C14.6924 8.12061 17.3483 7.28566 20.1184 7.28566C22.8883 7.28566 25.5362 8.12053 27.7805 9.70176C28.1616 9.97046 28.2517 10.5015 27.9816 10.8802ZM16.8164 15.4249L16.8165 15.4248C17.779 14.7447 18.9245 14.3807 20.1184 14.3807C21.313 14.3807 22.458 14.7369 23.4196 15.4243L23.4204 15.4249C23.8015 15.6936 23.8916 16.2246 23.6215 16.6034L23.6213 16.6036C23.4547 16.8383 23.191 16.9626 22.9271 16.9626C22.7568 16.9626 22.5903 16.9089 22.4332 16.8028C21.7621 16.322 20.9563 16.0696 20.1184 16.0696C19.2793 16.0696 18.4814 16.3227 17.8027 16.8035C17.4206 17.0726 16.8855 16.9822 16.6153 16.6034C16.3452 16.2246 16.4353 15.6936 16.8164 15.4249ZM33.0601 5.34379L33.06 5.34406C32.8934 5.57869 32.6296 5.70302 32.3658 5.70302C32.1913 5.70302 32.0265 5.65508 31.874 5.54475L31.8724 5.54366C28.434 3.12281 24.3703 1.83889 20.1184 1.83889C15.8664 1.83889 11.8028 3.12281 8.36433 5.54366L8.36425 5.54371C7.98222 5.81305 7.44683 5.72268 7.1766 5.34379C6.90648 4.96504 6.99656 4.43402 7.3777 4.16532L7.37779 4.16526C11.0998 1.53696 15.5112 0.15 20.1184 0.15C24.7254 0.15 29.1369 1.54499 32.8591 4.16538C33.2402 4.4341 33.3302 4.96507 33.0601 5.34379ZM19.7184 28.6845H31.1738C31.638 28.6845 32.0204 29.0559 32.028 29.5339C32.0275 30.0019 31.6466 30.3815 31.1738 30.3815H19.7184C19.2452 30.3815 18.8641 30.0014 18.8641 29.533C18.8641 29.0646 19.2452 28.6845 19.7184 28.6845ZM11.4116 29.5249C11.4116 30.1003 10.9422 30.5682 10.3614 30.5682C9.78051 30.5682 9.31112 30.1003 9.31112 29.5249C9.31112 28.9495 9.78051 28.4816 10.3614 28.4816C10.9422 28.4816 11.4116 28.9495 11.4116 29.5249Z" fill="#AB3996" stroke="white" stroke-width="0.3"/>
</svg>
