<svg width="33" height="32" viewBox="0 0 33 32" fill="none" xmlns="http://www.w3.org/2000/svg">
<path d="M21.7435 16C21.7435 14.5278 21.2227 13.2708 20.181 12.2292C19.1393 11.1875 17.8824 10.6667 16.4102 10.6667C14.9379 10.6667 13.681 11.1875 12.6393 12.2292C11.5977 13.2708 11.0768 14.5278 11.0768 16C11.0768 17.4722 11.5977 18.7292 12.6393 19.7708C13.681 20.8125 14.9379 21.3333 16.4102 21.3333C17.8824 21.3333 19.1393 20.8125 20.181 19.7708C21.2227 18.7292 21.7435 17.4722 21.7435 16ZM24.6185 16C24.6185 18.2778 23.8199 20.2153 22.2227 21.8125C20.6254 23.4097 18.6879 24.2083 16.4102 24.2083C14.1324 24.2083 12.1949 23.4097 10.5977 21.8125C9.00043 20.2153 8.20182 18.2778 8.20182 16C8.20182 13.7222 9.00043 11.7847 10.5977 10.1875C12.1949 8.59028 14.1324 7.79167 16.4102 7.79167C18.6879 7.79167 20.6254 8.59028 22.2227 10.1875C23.8199 11.7847 24.6185 13.7222 24.6185 16ZM26.8685 7.45833C26.8685 7.98611 26.681 8.4375 26.306 8.8125C25.931 9.1875 25.4796 9.375 24.9518 9.375C24.424 9.375 23.9727 9.1875 23.5977 8.8125C23.2227 8.4375 23.0352 7.98611 23.0352 7.45833C23.0352 6.93056 23.2227 6.47917 23.5977 6.10417C23.9727 5.72917 24.424 5.54167 24.9518 5.54167C25.4796 5.54167 25.931 5.72917 26.306 6.10417C26.681 6.47917 26.8685 6.93056 26.8685 7.45833ZM16.4102 2.875C16.3129 2.875 15.7817 2.87153 14.8164 2.86458C13.8511 2.85764 13.1185 2.85764 12.6185 2.86458C12.1185 2.87153 11.4484 2.89236 10.6081 2.92708C9.7678 2.96181 9.05252 3.03125 8.46224 3.13542C7.87196 3.23958 7.37543 3.36806 6.97266 3.52083C6.27821 3.79861 5.6671 4.20139 5.13932 4.72917C4.61155 5.25694 4.20877 5.86806 3.93099 6.5625C3.77821 6.96528 3.64974 7.46181 3.54557 8.05208C3.44141 8.64236 3.37196 9.35764 3.33724 10.1979C3.30252 11.0382 3.28168 11.7083 3.27474 12.2083C3.2678 12.7083 3.2678 13.441 3.27474 14.4062C3.28168 15.3715 3.28516 15.9028 3.28516 16C3.28516 16.0972 3.28168 16.6285 3.27474 17.5938C3.2678 18.559 3.2678 19.2917 3.27474 19.7917C3.28168 20.2917 3.30252 20.9618 3.33724 21.8021C3.37196 22.6424 3.44141 23.3576 3.54557 23.9479C3.64974 24.5382 3.77821 25.0347 3.93099 25.4375C4.20877 26.1319 4.61155 26.7431 5.13932 27.2708C5.6671 27.7986 6.27821 28.2014 6.97266 28.4792C7.37543 28.6319 7.87196 28.7604 8.46224 28.8646C9.05252 28.9688 9.7678 29.0382 10.6081 29.0729C11.4484 29.1076 12.1185 29.1285 12.6185 29.1354C13.1185 29.1424 13.8511 29.1424 14.8164 29.1354C15.7817 29.1285 16.3129 29.125 16.4102 29.125C16.5074 29.125 17.0386 29.1285 18.0039 29.1354C18.9692 29.1424 19.7018 29.1424 20.2018 29.1354C20.7018 29.1285 21.372 29.1076 22.2122 29.0729C23.0525 29.0382 23.7678 28.9688 24.3581 28.8646C24.9484 28.7604 25.4449 28.6319 25.8477 28.4792C26.5421 28.2014 27.1532 27.7986 27.681 27.2708C28.2088 26.7431 28.6115 26.1319 28.8893 25.4375C29.0421 25.0347 29.1706 24.5382 29.2747 23.9479C29.3789 23.3576 29.4484 22.6424 29.4831 21.8021C29.5178 20.9618 29.5386 20.2917 29.5456 19.7917C29.5525 19.2917 29.5525 18.559 29.5456 17.5938C29.5386 16.6285 29.5352 16.0972 29.5352 16C29.5352 15.9028 29.5386 15.3715 29.5456 14.4062C29.5525 13.441 29.5525 12.7083 29.5456 12.2083C29.5386 11.7083 29.5178 11.0382 29.4831 10.1979C29.4484 9.35764 29.3789 8.64236 29.2747 8.05208C29.1706 7.46181 29.0421 6.96528 28.8893 6.5625C28.6115 5.86806 28.2088 5.25694 27.681 4.72917C27.1532 4.20139 26.5421 3.79861 25.8477 3.52083C25.4449 3.36806 24.9484 3.23958 24.3581 3.13542C23.7678 3.03125 23.0525 2.96181 22.2122 2.92708C21.372 2.89236 20.7018 2.87153 20.2018 2.86458C19.7018 2.85764 18.9692 2.85764 18.0039 2.86458C17.0386 2.87153 16.5074 2.875 16.4102 2.875ZM32.4102 16C32.4102 19.1806 32.3754 21.3819 32.306 22.6042C32.1671 25.4931 31.306 27.7292 29.7227 29.3125C28.1393 30.8958 25.9032 31.7569 23.0143 31.8958C21.7921 31.9653 19.5907 32 16.4102 32C13.2296 32 11.0282 31.9653 9.80599 31.8958C6.9171 31.7569 4.68099 30.8958 3.09766 29.3125C1.51432 27.7292 0.653212 25.4931 0.514323 22.6042C0.444878 21.3819 0.410156 19.1806 0.410156 16C0.410156 12.8194 0.444878 10.6181 0.514323 9.39583C0.653212 6.50694 1.51432 4.27083 3.09766 2.6875C4.68099 1.10417 6.9171 0.243056 9.80599 0.104167C11.0282 0.0347222 13.2296 0 16.4102 0C19.5907 0 21.7921 0.0347222 23.0143 0.104167C25.9032 0.243056 28.1393 1.10417 29.7227 2.6875C31.306 4.27083 32.1671 6.50694 32.306 9.39583C32.3754 10.6181 32.4102 12.8194 32.4102 16Z" fill="white"/>
</svg>
