<svg width="33" height="31" viewBox="0 0 33 31" fill="none" xmlns="http://www.w3.org/2000/svg">
<path d="M7.68099 9.82016V30.2222H0.80599V9.82016H7.68099ZM8.11849 3.52044C8.13238 4.52235 7.78168 5.35957 7.06641 6.03209C6.35113 6.70461 5.41016 7.04087 4.24349 7.04087H4.20182C3.06293 7.04087 2.14627 6.70461 1.45182 6.03209C0.757379 5.35957 0.410156 4.52235 0.410156 3.52044C0.410156 2.50479 0.767795 1.66414 1.48307 0.998486C2.19835 0.332829 3.13238 0 4.28516 0C5.43793 0 6.36155 0.332829 7.05599 0.998486C7.75043 1.66414 8.1046 2.50479 8.11849 3.52044ZM32.4102 18.5286V30.2222H25.556V19.3109C25.556 17.8698 25.2747 16.7409 24.7122 15.9243C24.1497 15.1077 23.2713 14.6994 22.0768 14.6994C21.2018 14.6994 20.4692 14.9361 19.8789 15.4096C19.2886 15.8831 18.8477 16.4699 18.556 17.1698C18.4032 17.5816 18.3268 18.1374 18.3268 18.8374V30.2222H11.4727C11.5004 24.746 11.5143 20.306 11.5143 16.9022C11.5143 13.4984 11.5074 11.4672 11.4935 10.8084L11.4727 9.82016H18.3268V12.7847H18.2852C18.5629 12.3455 18.8477 11.9612 19.1393 11.6318C19.431 11.3025 19.8234 10.9456 20.3164 10.5613C20.8095 10.177 21.4136 9.87849 22.1289 9.66576C22.8442 9.45302 23.6393 9.34665 24.5143 9.34665C26.8893 9.34665 28.799 10.1255 30.2435 11.6833C31.6879 13.2411 32.4102 15.5229 32.4102 18.5286Z" fill="white"/>
</svg>
