<svg width="33" height="26" viewBox="0 0 33 26" fill="none" xmlns="http://www.w3.org/2000/svg">
<path d="M32.4102 3.08108C31.5032 4.40541 30.4068 5.53378 29.1208 6.46622C29.1344 6.65541 29.1411 6.93919 29.1411 7.31757C29.1411 9.07432 28.8839 10.8277 28.3695 12.5777C27.8552 14.3277 27.0734 16.0068 26.0244 17.6149C24.9753 19.223 23.7266 20.6453 22.2782 21.8818C20.8298 23.1182 19.0836 24.1047 17.0396 24.8412C14.9956 25.5777 12.8095 25.9459 10.4812 25.9459C6.81286 25.9459 3.45584 24.9662 0.410156 23.0068C0.88393 23.0608 1.41185 23.0878 1.99391 23.0878C5.0396 23.0878 7.75364 22.1554 10.136 20.2905C8.71472 20.2635 7.44231 19.8277 6.31879 18.9831C5.19527 18.1385 4.42369 17.0608 4.00406 15.75C4.45077 15.8176 4.86363 15.8514 5.24264 15.8514C5.82471 15.8514 6.4 15.777 6.96853 15.6284C5.45246 15.3176 4.19696 14.5642 3.20203 13.3682C2.20711 12.1723 1.70965 10.7838 1.70965 9.2027V9.12162C2.63012 9.63513 3.61828 9.91216 4.67412 9.9527C3.78071 9.35811 3.07005 8.58108 2.54214 7.62162C2.01422 6.66216 1.75026 5.62162 1.75026 4.5C1.75026 3.31081 2.04806 2.20946 2.64366 1.19595C4.28156 3.20946 6.27479 4.82095 8.62335 6.03041C10.9719 7.23986 13.4863 7.91216 16.1665 8.0473C16.0582 7.53378 16.0041 7.03378 16.0041 6.5473C16.0041 4.73649 16.6437 3.19257 17.9228 1.91554C19.202 0.638514 20.7486 0 22.5624 0C24.4575 0 26.0548 0.689189 27.3543 2.06757C28.8298 1.78378 30.2173 1.25676 31.5168 0.486486C31.0159 2.04054 30.0548 3.24324 28.6335 4.09459C29.8924 3.95946 31.1513 3.62162 32.4102 3.08108Z" fill="white"/>
</svg>
