<svg width="28" height="32" viewBox="0 0 28 32" fill="none" xmlns="http://www.w3.org/2000/svg">
<path d="M17.3962 22.2143V25.9821C17.3962 26.7798 17.1623 27.1786 16.6945 27.1786C16.4186 27.1786 16.1486 27.0476 15.8847 26.7857V21.4107C16.1486 21.1488 16.4186 21.0179 16.6945 21.0179C17.1623 21.0179 17.3962 21.4167 17.3962 22.2143ZM23.4781 22.2321V23.0536H21.8586V22.2321C21.8586 21.4226 22.1286 21.0179 22.6684 21.0179C23.2082 21.0179 23.4781 21.4226 23.4781 22.2321ZM6.09617 18.3393H8.02149V16.6607H2.40746V18.3393H4.2968V28.5H6.09617V18.3393ZM11.2784 28.5H12.8798V19.6786H11.2784V26.4286C10.9185 26.9286 10.5766 27.1786 10.2527 27.1786C10.0368 27.1786 9.91083 27.0536 9.87484 26.8036C9.86285 26.7679 9.85685 26.5595 9.85685 26.1786V19.6786H8.25541V26.6607C8.25541 27.244 8.30339 27.6786 8.39936 27.9643C8.54331 28.4048 8.89119 28.625 9.44299 28.625C10.0188 28.625 10.6306 28.2619 11.2784 27.5357V28.5ZM18.9977 25.8571V22.3393C18.9977 21.4702 18.9437 20.881 18.8357 20.5714C18.6318 19.9048 18.2059 19.5714 17.5582 19.5714C16.9584 19.5714 16.4006 19.8929 15.8847 20.5357V16.6607H14.2833V28.5H15.8847V27.6429C16.4246 28.2976 16.9824 28.625 17.5582 28.625C18.2059 28.625 18.6318 28.2976 18.8357 27.6429C18.9437 27.3214 18.9977 26.7262 18.9977 25.8571ZM25.0795 25.6786V25.4464H23.4421C23.4421 26.0536 23.4301 26.4167 23.4061 26.5357C23.3221 26.9643 23.0822 27.1786 22.6864 27.1786C22.1346 27.1786 21.8586 26.7679 21.8586 25.9464V24.3929H25.0795V22.5536C25.0795 21.6131 24.9176 20.9226 24.5937 20.4821C24.1259 19.875 23.4901 19.5714 22.6864 19.5714C21.8706 19.5714 21.2289 19.875 20.761 20.4821C20.4251 20.9226 20.2572 21.6131 20.2572 22.5536V25.6429C20.2572 26.5833 20.4311 27.2738 20.779 27.7143C21.2469 28.3214 21.8946 28.625 22.7223 28.625C23.586 28.625 24.2338 28.3095 24.6657 27.6786C24.8816 27.3571 25.0075 27.0357 25.0435 26.7143C25.0675 26.6071 25.0795 26.2619 25.0795 25.6786ZM14.1394 9.375V5.625C14.1394 4.80357 13.8814 4.39286 13.3656 4.39286C12.8498 4.39286 12.5919 4.80357 12.5919 5.625V9.375C12.5919 10.2083 12.8498 10.625 13.3656 10.625C13.8814 10.625 14.1394 10.2083 14.1394 9.375ZM27.0768 22.7857C27.0768 25.5714 26.9209 27.6548 26.609 29.0357C26.441 29.7381 26.0932 30.3274 25.5654 30.8036C25.0375 31.2798 24.4258 31.5536 23.73 31.625C21.5228 31.875 18.1939 32 13.7435 32C9.29305 32 5.96421 31.875 3.75698 31.625C3.06123 31.5536 2.44644 31.2798 1.91263 30.8036C1.37882 30.3274 1.03394 29.7381 0.877992 29.0357C0.566102 27.7024 0.410156 25.619 0.410156 22.7857C0.410156 20 0.566102 17.9167 0.877992 16.5357C1.04593 15.8333 1.39381 15.244 1.92163 14.7679C2.44944 14.2917 3.06723 14.0119 3.77498 13.9286C5.97021 13.6905 9.29305 13.5714 13.7435 13.5714C18.1939 13.5714 21.5228 13.6905 23.73 13.9286C24.4258 14.0119 25.0405 14.2917 25.5743 14.7679C26.1082 15.244 26.453 15.8333 26.609 16.5357C26.9209 17.869 27.0768 19.9524 27.0768 22.7857ZM9.11911 0H10.9545L8.77723 7.125V11.9643H6.97786V7.125C6.80992 6.24405 6.44404 4.98214 5.88024 3.33929C5.4364 2.1131 5.04653 1 4.71065 0H6.61798L7.89554 4.69643L9.11911 0ZM15.7768 5.94643V9.07143C15.7768 10.0357 15.6088 10.7381 15.273 11.1786C14.8171 11.7857 14.1813 12.0893 13.3656 12.0893C12.5619 12.0893 11.9321 11.7857 11.4763 11.1786C11.1404 10.7262 10.9725 10.0238 10.9725 9.07143V5.94643C10.9725 4.99405 11.1404 4.29762 11.4763 3.85714C11.9321 3.25 12.5619 2.94643 13.3656 2.94643C14.1813 2.94643 14.8171 3.25 15.273 3.85714C15.6088 4.29762 15.7768 4.99405 15.7768 5.94643ZM21.8047 3.05357V11.9643H20.1672V10.9821C19.5315 11.7202 18.9137 12.0893 18.3139 12.0893C17.7621 12.0893 17.4082 11.869 17.2523 11.4286C17.1563 11.1429 17.1083 10.6964 17.1083 10.0893V3.05357H18.7457V9.60714C18.7457 10 18.7517 10.2083 18.7637 10.2321C18.7997 10.494 18.9257 10.625 19.1416 10.625C19.4655 10.625 19.8074 10.369 20.1672 9.85714V3.05357H21.8047Z" fill="white"/>
</svg>
