<svg width="22" height="40" viewBox="0 0 22 40" fill="none" xmlns="http://www.w3.org/2000/svg">
<path d="M11.0001 0C4.93465 0 8.15884e-05 4.7225 8.15884e-05 10.5273V11.043C8.15884e-05 12.0003 0.395023 12.8952 1.11209 13.5629C1.82891 14.2303 2.7761 14.5838 3.77586 14.5572C5.74502 14.5056 7.34699 12.9073 7.34699 10.9942V10.5273C7.34699 9.58539 7.73467 8.70133 8.43859 8.03789C9.12856 7.38742 10.0362 7.03125 11 7.03125C11.0189 7.03125 11.0381 7.03141 11.0571 7.03164C13.0399 7.06063 14.6531 8.66055 14.6531 10.5981V14.2982C14.6531 15.1391 13.9382 15.8233 13.0595 15.8233H4.85212C2.17667 15.8233 0 17.9064 0 20.4669V34.5383C0 37.5499 2.5601 40 5.7069 40H16.2931C19.4399 40 22 37.5499 22 34.5383V10.5273C22.0001 4.7225 17.0655 0 11.0001 0ZM19.5511 34.5383C19.5511 36.2576 18.0896 37.6562 16.2932 37.6562H5.70698C3.91056 37.6562 2.44908 36.2576 2.44908 34.5383V20.467C2.44908 19.1988 3.52713 18.1671 4.8522 18.1671H13.0596C15.2887 18.1671 17.1022 16.4316 17.1022 14.2983V10.5982C17.1022 7.38773 14.4071 4.73664 11.0945 4.68828C9.44995 4.66516 7.89492 5.26086 6.72021 6.36797C5.5451 7.47555 4.89808 8.95266 4.89808 10.5273V10.9942C4.89808 11.6498 4.36469 12.1972 3.70884 12.2144C3.37733 12.2234 3.05888 12.1055 2.81994 11.8831C2.58084 11.6605 2.44916 11.3621 2.44916 11.043V10.5273C2.44908 6.01484 6.28503 2.34375 11.0001 2.34375C15.7151 2.34375 19.5511 6.01484 19.5511 10.5273V34.5383Z" fill="#AB3996"/>
<path d="M14.6337 33.3195H7.36662C6.69037 33.3195 6.14212 33.8442 6.14212 34.4914C6.14212 35.1386 6.69037 35.6633 7.36662 35.6633H14.6337C15.3099 35.6633 15.8582 35.1386 15.8582 34.4914C15.8582 33.8442 15.3099 33.3195 14.6337 33.3195Z" fill="#AB3996"/>
<path d="M11.0001 30.7127C13.5763 30.7127 15.6721 28.7069 15.6721 26.2416C15.6721 23.7762 13.5763 21.7702 11.0001 21.7702C8.42391 21.7702 6.32806 23.7761 6.32806 26.2415C6.32806 28.7069 8.42391 30.7127 11.0001 30.7127ZM11.0001 24.114C12.2259 24.114 13.2231 25.0684 13.2231 26.2415C13.2231 27.4145 12.2259 28.369 11.0001 28.369C9.77429 28.369 8.77706 27.4146 8.77706 26.2416C8.77706 25.0685 9.77429 24.114 11.0001 24.114Z" fill="#AB3996"/>
</svg>
