<svg width="40" height="28" viewBox="0 0 40 28" fill="none" xmlns="http://www.w3.org/2000/svg">
<path d="M2.10313 6.46469C3.26375 5.29962 4.91141 4.16697 6.86828 3.18907C10.8643 1.19221 15.7734 0 20 0C24.2266 0 29.1357 1.19221 33.1318 3.18907C35.0887 4.16697 36.7363 5.29962 37.897 6.46469C39.2923 7.86572 40 9.29995 40 10.7276C40 12.958 38.6944 15.1369 36.2244 17.0288C35.1895 17.8214 34.1589 18.4063 33.4783 18.7569V21.4462C33.4783 25.06 30.559 28 26.9706 28H13.0294C9.44102 28 6.52172 25.06 6.52172 21.4462V18.7569C5.84109 18.4064 4.81063 17.8215 3.77563 17.0288C1.30563 15.1369 0 12.958 0 10.7276C0 9.29995 0.707658 7.86572 2.10313 6.46469ZM9.13047 21.4462C9.13047 23.6113 10.8795 25.3728 13.0295 25.3728H26.9706C29.1205 25.3728 30.8696 23.6113 30.8696 21.4462V19.2427H9.13047V21.4462ZM8.10281 16.6155H31.897C33.6264 15.8121 37.3913 13.4875 37.3913 10.7276C37.3913 9.22276 35.2642 7.18751 31.9723 5.5425C28.3192 3.71708 23.8437 2.62723 20 2.62723C16.1563 2.62723 11.6808 3.71708 8.02773 5.5425C4.73586 7.18759 2.60867 9.22284 2.60867 10.7276C2.60867 13.4882 6.37539 15.8133 8.10281 16.6155Z" fill="#AB3996"/>
<path d="M17.6937 10.2643C17.9385 11.0792 18.3019 11.5526 18.6956 11.8256V9.05636H17.3912V6.42921H18.6956V5.37075H21.3043V6.42921H22.6087V9.05636H21.3043V11.8258C21.6979 11.5529 22.0613 11.0793 22.3061 10.2642L24.803 11.0249C24.0801 13.4317 22.3299 14.8121 19.9992 14.8121C17.6701 14.8121 15.9197 13.4317 15.1967 11.0249L17.6937 10.2643Z" fill="#AB3996"/>
</svg>