<svg width="42" height="42" viewBox="0 0 42 42" fill="none" xmlns="http://www.w3.org/2000/svg">
<mask id="path-1-outside-1" maskUnits="userSpaceOnUse" x="0" y="0" width="42" height="42" fill="black">
<rect fill="white" width="42" height="42"/>
<path d="M21.1516 9.33336C18.727 9.33336 16.7528 7.46336 16.7528 5.16672C16.7528 2.87008 18.7252 1 21.1516 1C23.5762 1 25.5504 2.87 25.5504 5.16664C25.5504 7.46328 23.5762 9.33336 21.1516 9.33336ZM21.1516 2.66664C19.6965 2.66664 18.5123 3.78828 18.5123 5.16664C18.5123 6.545 19.6965 7.66664 21.1516 7.66664C22.6068 7.66664 23.7909 6.545 23.7909 5.16664C23.7909 3.78836 22.605 2.66664 21.1516 2.66664Z"/>
<path d="M8.68357 11C6.25896 11 4.28476 9.13 4.28476 6.83336C4.28476 4.53672 6.25723 2.66672 8.68357 2.66672C11.1082 2.66672 13.0824 4.53672 13.0824 6.83336C13.0824 9.13 11.1082 11 8.68357 11ZM8.68357 4.33336C7.2284 4.33336 6.04427 5.455 6.04427 6.83336C6.04427 8.21172 7.22667 9.33336 8.68357 9.33336C10.1387 9.33336 11.3229 8.21172 11.3229 6.83336C11.3229 5.455 10.1369 4.33336 8.68357 4.33336Z"/>
<path d="M1.02077 24.8584L2.14865 16.3184C2.42141 14.2367 4.29878 12.6684 6.51233 12.6684H10.8566C11.3458 12.6684 11.8384 12.75 12.3223 12.9134C12.7798 13.0667 13.0191 13.5434 12.8572 13.9767C12.6936 14.4101 12.1921 14.6384 11.7346 14.4834C11.4407 14.385 11.1451 14.335 10.8566 14.335H6.51233C5.18385 14.335 4.05951 15.2766 3.89414 16.525L2.76625 25.065C2.73458 25.305 2.81021 25.5384 2.97913 25.72C3.14804 25.9016 3.38203 26.0016 3.63895 26.0016H4.28468C4.74746 26.0016 5.12925 26.3383 5.16265 26.775L5.98439 37.6684H11.3844L11.578 35.1084C11.6132 34.65 12.0267 34.3 12.5176 34.3367C13.0015 34.3684 13.3674 34.7684 13.3322 35.2267L13.0806 38.5601C13.0453 38.9951 12.6618 39.3334 12.2026 39.3334H5.16447C4.7035 39.3334 4.31989 38.9951 4.28822 38.5618L3.46649 27.6634C2.77326 27.6201 2.124 27.3201 1.66121 26.8234C1.15982 26.285 0.925751 25.57 1.02077 24.8584Z"/>
<path d="M13.0929 31.6734L14.3686 25.555C13.4906 25.0134 12.9698 24.0034 13.1 22.9284L14.263 15.0484C14.5393 12.74 16.4695 11 18.7481 11H23.2419C25.5223 11 27.4525 12.74 27.727 15.0266L28.8953 22.9483C29.0237 24.0049 28.503 25.0133 27.6249 25.5533L28.9006 31.6716C28.9517 31.915 28.8848 32.17 28.7176 32.3616C28.5522 32.555 28.2988 32.6666 28.0384 32.6666H25.0471L23.6255 40.3116C23.5498 40.71 23.1856 41 22.7598 41H19.2407C18.8131 41 18.4489 40.71 18.3697 40.3134L16.948 32.6684H13.9568C13.6946 32.6684 13.4448 32.5567 13.2776 32.3634C13.1106 32.1716 13.042 31.9166 13.0929 31.6734ZM16.2355 25.235L15.032 31H17.6924C18.1182 31 18.4842 31.29 18.5581 31.6884L19.978 39.3334H22.0209L23.4461 31.6867C23.52 31.2884 23.8842 30.9984 24.3118 30.9984H26.9705L25.7687 25.2334C25.6789 24.8017 25.9587 24.3784 26.4074 24.2667C26.8966 24.1451 27.215 23.6601 27.1552 23.1584L25.9869 15.2367C25.811 13.7717 24.6339 12.6667 23.249 12.6667H18.7552C17.3705 12.6667 16.1934 13.7717 16.0139 15.2584L14.8509 23.1384C14.7875 23.6617 15.1078 24.1467 15.5952 24.2684C16.0437 24.38 16.3234 24.8034 16.2355 25.235Z"/>
<path d="M29.4813 34.335C29.9616 34.2916 30.3856 34.6484 30.4208 35.1066L30.6144 37.6666H36.0162L36.8361 26.7733C36.8696 26.3384 37.2531 26 37.7159 26H38.3616C38.6185 26 38.8525 25.9 39.0214 25.7184C39.1903 25.5367 39.266 25.305 39.2343 25.0634L38.1064 16.5234C37.9428 15.275 36.8184 14.3334 35.4882 14.3334H31.1439C30.9469 14.3334 30.7375 14.3617 30.4806 14.4267C30.009 14.5367 29.5287 14.2767 29.4055 13.8317C29.2823 13.3867 29.5638 12.9301 30.0336 12.8134C30.4401 12.7134 30.792 12.6667 31.1457 12.6667H35.4883C37.7018 12.6667 39.5775 14.2351 39.852 16.3167L40.9798 24.8566C41.0731 25.5683 40.8408 26.2833 40.3393 26.8216C39.8766 27.3183 39.2273 27.6183 38.5341 27.6616L37.7123 38.56C37.6789 38.995 37.2953 39.3334 36.8361 39.3334H29.798C29.337 39.3334 28.9534 38.995 28.92 38.5584L28.6684 35.225C28.6331 34.7666 28.9992 34.3684 29.4813 34.335Z"/>
<path d="M33.3171 11C30.8925 11 28.9183 9.13 28.9183 6.83336C28.9183 4.53672 30.8907 2.66672 33.3171 2.66672C35.7417 2.66672 37.7159 4.53672 37.7159 6.83336C37.7159 9.13 35.7417 11 33.3171 11ZM33.3171 4.33336C31.8619 4.33336 30.6778 5.455 30.6778 6.83336C30.6778 8.21172 31.8602 9.33336 33.3171 9.33336C34.7704 9.33336 35.9564 8.21172 35.9564 6.83336C35.9564 5.455 34.7704 4.33336 33.3171 4.33336Z"/>
</mask>
<path d="M21.1516 9.33336C18.727 9.33336 16.7528 7.46336 16.7528 5.16672C16.7528 2.87008 18.7252 1 21.1516 1C23.5762 1 25.5504 2.87 25.5504 5.16664C25.5504 7.46328 23.5762 9.33336 21.1516 9.33336ZM21.1516 2.66664C19.6965 2.66664 18.5123 3.78828 18.5123 5.16664C18.5123 6.545 19.6965 7.66664 21.1516 7.66664C22.6068 7.66664 23.7909 6.545 23.7909 5.16664C23.7909 3.78836 22.605 2.66664 21.1516 2.66664Z" fill="#AB3996"/>
<path d="M8.68357 11C6.25896 11 4.28476 9.13 4.28476 6.83336C4.28476 4.53672 6.25723 2.66672 8.68357 2.66672C11.1082 2.66672 13.0824 4.53672 13.0824 6.83336C13.0824 9.13 11.1082 11 8.68357 11ZM8.68357 4.33336C7.2284 4.33336 6.04427 5.455 6.04427 6.83336C6.04427 8.21172 7.22667 9.33336 8.68357 9.33336C10.1387 9.33336 11.3229 8.21172 11.3229 6.83336C11.3229 5.455 10.1369 4.33336 8.68357 4.33336Z" fill="#AB3996"/>
<path d="M1.02077 24.8584L2.14865 16.3184C2.42141 14.2367 4.29878 12.6684 6.51233 12.6684H10.8566C11.3458 12.6684 11.8384 12.75 12.3223 12.9134C12.7798 13.0667 13.0191 13.5434 12.8572 13.9767C12.6936 14.4101 12.1921 14.6384 11.7346 14.4834C11.4407 14.385 11.1451 14.335 10.8566 14.335H6.51233C5.18385 14.335 4.05951 15.2766 3.89414 16.525L2.76625 25.065C2.73458 25.305 2.81021 25.5384 2.97913 25.72C3.14804 25.9016 3.38203 26.0016 3.63895 26.0016H4.28468C4.74746 26.0016 5.12925 26.3383 5.16265 26.775L5.98439 37.6684H11.3844L11.578 35.1084C11.6132 34.65 12.0267 34.3 12.5176 34.3367C13.0015 34.3684 13.3674 34.7684 13.3322 35.2267L13.0806 38.5601C13.0453 38.9951 12.6618 39.3334 12.2026 39.3334H5.16447C4.7035 39.3334 4.31989 38.9951 4.28822 38.5618L3.46649 27.6634C2.77326 27.6201 2.124 27.3201 1.66121 26.8234C1.15982 26.285 0.925751 25.57 1.02077 24.8584Z" fill="#AB3996"/>
<path d="M13.0929 31.6734L14.3686 25.555C13.4906 25.0134 12.9698 24.0034 13.1 22.9284L14.263 15.0484C14.5393 12.74 16.4695 11 18.7481 11H23.2419C25.5223 11 27.4525 12.74 27.727 15.0266L28.8953 22.9483C29.0237 24.0049 28.503 25.0133 27.6249 25.5533L28.9006 31.6716C28.9517 31.915 28.8848 32.17 28.7176 32.3616C28.5522 32.555 28.2988 32.6666 28.0384 32.6666H25.0471L23.6255 40.3116C23.5498 40.71 23.1856 41 22.7598 41H19.2407C18.8131 41 18.4489 40.71 18.3697 40.3134L16.948 32.6684H13.9568C13.6946 32.6684 13.4448 32.5567 13.2776 32.3634C13.1106 32.1716 13.042 31.9166 13.0929 31.6734ZM16.2355 25.235L15.032 31H17.6924C18.1182 31 18.4842 31.29 18.5581 31.6884L19.978 39.3334H22.0209L23.4461 31.6867C23.52 31.2884 23.8842 30.9984 24.3118 30.9984H26.9705L25.7687 25.2334C25.6789 24.8017 25.9587 24.3784 26.4074 24.2667C26.8966 24.1451 27.215 23.6601 27.1552 23.1584L25.9869 15.2367C25.811 13.7717 24.6339 12.6667 23.249 12.6667H18.7552C17.3705 12.6667 16.1934 13.7717 16.0139 15.2584L14.8509 23.1384C14.7875 23.6617 15.1078 24.1467 15.5952 24.2684C16.0437 24.38 16.3234 24.8034 16.2355 25.235Z" fill="#AB3996"/>
<path d="M29.4813 34.335C29.9616 34.2916 30.3856 34.6484 30.4208 35.1066L30.6144 37.6666H36.0162L36.8361 26.7733C36.8696 26.3384 37.2531 26 37.7159 26H38.3616C38.6185 26 38.8525 25.9 39.0214 25.7184C39.1903 25.5367 39.266 25.305 39.2343 25.0634L38.1064 16.5234C37.9428 15.275 36.8184 14.3334 35.4882 14.3334H31.1439C30.9469 14.3334 30.7375 14.3617 30.4806 14.4267C30.009 14.5367 29.5287 14.2767 29.4055 13.8317C29.2823 13.3867 29.5638 12.9301 30.0336 12.8134C30.4401 12.7134 30.792 12.6667 31.1457 12.6667H35.4883C37.7018 12.6667 39.5775 14.2351 39.852 16.3167L40.9798 24.8566C41.0731 25.5683 40.8408 26.2833 40.3393 26.8216C39.8766 27.3183 39.2273 27.6183 38.5341 27.6616L37.7123 38.56C37.6789 38.995 37.2953 39.3334 36.8361 39.3334H29.798C29.337 39.3334 28.9534 38.995 28.92 38.5584L28.6684 35.225C28.6331 34.7666 28.9992 34.3684 29.4813 34.335Z" fill="#AB3996"/>
<path d="M33.3171 11C30.8925 11 28.9183 9.13 28.9183 6.83336C28.9183 4.53672 30.8907 2.66672 33.3171 2.66672C35.7417 2.66672 37.7159 4.53672 37.7159 6.83336C37.7159 9.13 35.7417 11 33.3171 11ZM33.3171 4.33336C31.8619 4.33336 30.6778 5.455 30.6778 6.83336C30.6778 8.21172 31.8602 9.33336 33.3171 9.33336C34.7704 9.33336 35.9564 8.21172 35.9564 6.83336C35.9564 5.455 34.7704 4.33336 33.3171 4.33336Z" fill="#AB3996"/>
<path d="M21.1516 9.33336C18.727 9.33336 16.7528 7.46336 16.7528 5.16672C16.7528 2.87008 18.7252 1 21.1516 1C23.5762 1 25.5504 2.87 25.5504 5.16664C25.5504 7.46328 23.5762 9.33336 21.1516 9.33336ZM21.1516 2.66664C19.6965 2.66664 18.5123 3.78828 18.5123 5.16664C18.5123 6.545 19.6965 7.66664 21.1516 7.66664C22.6068 7.66664 23.7909 6.545 23.7909 5.16664C23.7909 3.78836 22.605 2.66664 21.1516 2.66664Z" stroke="#FF7544" stroke-width="0.4" mask="url(#path-1-outside-1)"/>
<path d="M8.68357 11C6.25896 11 4.28476 9.13 4.28476 6.83336C4.28476 4.53672 6.25723 2.66672 8.68357 2.66672C11.1082 2.66672 13.0824 4.53672 13.0824 6.83336C13.0824 9.13 11.1082 11 8.68357 11ZM8.68357 4.33336C7.2284 4.33336 6.04427 5.455 6.04427 6.83336C6.04427 8.21172 7.22667 9.33336 8.68357 9.33336C10.1387 9.33336 11.3229 8.21172 11.3229 6.83336C11.3229 5.455 10.1369 4.33336 8.68357 4.33336Z" stroke="#FF7544" stroke-width="0.4" mask="url(#path-1-outside-1)"/>
<path d="M1.02077 24.8584L2.14865 16.3184C2.42141 14.2367 4.29878 12.6684 6.51233 12.6684H10.8566C11.3458 12.6684 11.8384 12.75 12.3223 12.9134C12.7798 13.0667 13.0191 13.5434 12.8572 13.9767C12.6936 14.4101 12.1921 14.6384 11.7346 14.4834C11.4407 14.385 11.1451 14.335 10.8566 14.335H6.51233C5.18385 14.335 4.05951 15.2766 3.89414 16.525L2.76625 25.065C2.73458 25.305 2.81021 25.5384 2.97913 25.72C3.14804 25.9016 3.38203 26.0016 3.63895 26.0016H4.28468C4.74746 26.0016 5.12925 26.3383 5.16265 26.775L5.98439 37.6684H11.3844L11.578 35.1084C11.6132 34.65 12.0267 34.3 12.5176 34.3367C13.0015 34.3684 13.3674 34.7684 13.3322 35.2267L13.0806 38.5601C13.0453 38.9951 12.6618 39.3334 12.2026 39.3334H5.16447C4.7035 39.3334 4.31989 38.9951 4.28822 38.5618L3.46649 27.6634C2.77326 27.6201 2.124 27.3201 1.66121 26.8234C1.15982 26.285 0.925751 25.57 1.02077 24.8584Z" stroke="#FF7544" stroke-width="0.4" mask="url(#path-1-outside-1)"/>
<path d="M13.0929 31.6734L14.3686 25.555C13.4906 25.0134 12.9698 24.0034 13.1 22.9284L14.263 15.0484C14.5393 12.74 16.4695 11 18.7481 11H23.2419C25.5223 11 27.4525 12.74 27.727 15.0266L28.8953 22.9483C29.0237 24.0049 28.503 25.0133 27.6249 25.5533L28.9006 31.6716C28.9517 31.915 28.8848 32.17 28.7176 32.3616C28.5522 32.555 28.2988 32.6666 28.0384 32.6666H25.0471L23.6255 40.3116C23.5498 40.71 23.1856 41 22.7598 41H19.2407C18.8131 41 18.4489 40.71 18.3697 40.3134L16.948 32.6684H13.9568C13.6946 32.6684 13.4448 32.5567 13.2776 32.3634C13.1106 32.1716 13.042 31.9166 13.0929 31.6734ZM16.2355 25.235L15.032 31H17.6924C18.1182 31 18.4842 31.29 18.5581 31.6884L19.978 39.3334H22.0209L23.4461 31.6867C23.52 31.2884 23.8842 30.9984 24.3118 30.9984H26.9705L25.7687 25.2334C25.6789 24.8017 25.9587 24.3784 26.4074 24.2667C26.8966 24.1451 27.215 23.6601 27.1552 23.1584L25.9869 15.2367C25.811 13.7717 24.6339 12.6667 23.249 12.6667H18.7552C17.3705 12.6667 16.1934 13.7717 16.0139 15.2584L14.8509 23.1384C14.7875 23.6617 15.1078 24.1467 15.5952 24.2684C16.0437 24.38 16.3234 24.8034 16.2355 25.235Z" stroke="#FF7544" stroke-width="0.4" mask="url(#path-1-outside-1)"/>
<path d="M29.4813 34.335C29.9616 34.2916 30.3856 34.6484 30.4208 35.1066L30.6144 37.6666H36.0162L36.8361 26.7733C36.8696 26.3384 37.2531 26 37.7159 26H38.3616C38.6185 26 38.8525 25.9 39.0214 25.7184C39.1903 25.5367 39.266 25.305 39.2343 25.0634L38.1064 16.5234C37.9428 15.275 36.8184 14.3334 35.4882 14.3334H31.1439C30.9469 14.3334 30.7375 14.3617 30.4806 14.4267C30.009 14.5367 29.5287 14.2767 29.4055 13.8317C29.2823 13.3867 29.5638 12.9301 30.0336 12.8134C30.4401 12.7134 30.792 12.6667 31.1457 12.6667H35.4883C37.7018 12.6667 39.5775 14.2351 39.852 16.3167L40.9798 24.8566C41.0731 25.5683 40.8408 26.2833 40.3393 26.8216C39.8766 27.3183 39.2273 27.6183 38.5341 27.6616L37.7123 38.56C37.6789 38.995 37.2953 39.3334 36.8361 39.3334H29.798C29.337 39.3334 28.9534 38.995 28.92 38.5584L28.6684 35.225C28.6331 34.7666 28.9992 34.3684 29.4813 34.335Z" stroke="#FF7544" stroke-width="0.4" mask="url(#path-1-outside-1)"/>
<path d="M33.3171 11C30.8925 11 28.9183 9.13 28.9183 6.83336C28.9183 4.53672 30.8907 2.66672 33.3171 2.66672C35.7417 2.66672 37.7159 4.53672 37.7159 6.83336C37.7159 9.13 35.7417 11 33.3171 11ZM33.3171 4.33336C31.8619 4.33336 30.6778 5.455 30.6778 6.83336C30.6778 8.21172 31.8602 9.33336 33.3171 9.33336C34.7704 9.33336 35.9564 8.21172 35.9564 6.83336C35.9564 5.455 34.7704 4.33336 33.3171 4.33336Z" stroke="#FF7544" stroke-width="0.4" mask="url(#path-1-outside-1)"/>
</svg>
